<svg width="55" height="47" viewBox="0 0 55 47" fill="none" xmlns="http://www.w3.org/2000/svg">
<path d="M19.5435 5.85269C19.6173 5.64158 19.6305 5.42784 19.5883 5.42256C19.5619 5.52811 19.5092 5.68908 19.4617 5.79727L19.5092 5.68908C19.5778 5.58353 19.525 5.79727 19.5435 5.85005V5.85269Z" fill="#D18730" fill-opacity="0.9"/>
<path d="M32.8658 4.68105C32.7813 4.5148 32.6969 4.36175 32.5597 4.15328C32.8235 4.5755 32.9291 5.08479 33.1005 5.29853C33.0372 5.02146 32.9555 4.84466 32.8658 4.67841V4.68105Z" fill="#D18730" fill-opacity="0.9"/>
<path d="M19.4722 7.46765C19.4907 7.95847 19.5699 8.03236 19.6437 8.10888C19.7255 8.18541 19.7651 8.27513 19.8838 8.75803C19.8917 9.014 19.7783 8.78442 19.6754 8.56276C19.591 8.33846 19.5092 8.12208 19.5013 8.47304C19.5382 8.62873 19.6121 8.77651 19.6701 8.92692C19.8442 9.19608 20.0684 9.3676 20.2637 9.66051C20.3507 9.84787 20.5064 10.117 20.4721 10.1461C20.2426 9.80565 20.2083 9.95606 20.3666 10.3783C20.5169 10.5287 20.5539 10.5656 20.6409 10.6237C20.5275 10.1909 20.6541 10.3783 20.8651 10.7134C20.9759 10.877 21.1316 11.067 21.2767 11.2438C21.4403 11.4048 21.6064 11.5499 21.7357 11.6212C22.4533 12.0856 22.6063 12.2307 22.7382 12.4445C22.8833 12.6239 23.0125 12.8772 23.8435 13.1306C23.6378 12.93 23.9174 12.9907 24.3105 13.1015C24.7062 13.2071 25.2444 13.3021 25.5214 13.2783C25.9804 13.3232 26.1466 13.3918 26.479 13.4631C26.6082 13.4261 26.9697 13.3865 27.0171 13.3364C26.9486 13.2651 26.8378 13.1992 26.6979 13.1332C26.7955 13.1253 26.8932 13.1253 26.9908 13.1121C28.9588 12.8825 30.6155 11.8243 31.6153 10.3545C31.3594 10.7583 31.0455 11.1356 30.6867 11.4707C30.0114 12.1014 29.2015 12.5817 28.3652 12.93C28.133 13.0804 27.9167 13.1543 27.703 13.2256C27.4867 13.281 27.2678 13.3126 27.0171 13.3681C27.1939 13.376 27.4023 13.376 27.6345 13.3681C27.864 13.3522 28.1119 13.3047 28.3731 13.2599C28.8849 13.1279 29.4495 12.9432 29.9428 12.6503C30.2725 12.3468 30.0325 12.4471 29.7291 12.6002C29.4257 12.7585 29.0168 12.9168 29.0485 12.8772C28.972 12.8588 29.212 12.7532 29.3861 12.6424C29.8161 12.4497 30.2567 12.2307 30.3306 12.2914L30.5073 12.0302C31.2987 11.4259 32.0822 10.6263 32.6099 9.49163C32.536 9.84787 32.4991 10.022 32.1508 10.4601C32.0585 10.943 32.1561 10.7372 32.3329 10.3756C32.5123 10.0168 32.6916 9.48371 32.8658 9.31746C32.7813 9.35969 32.9924 8.79234 33.0531 8.46512L32.9132 8.72901C32.9027 8.8715 32.8816 9.014 32.8473 9.15122C32.4674 9.9587 32.6811 9.014 32.6442 8.96914C32.7286 8.69206 32.784 8.48096 32.8605 8.30152C32.9185 8.11944 32.9766 7.96639 33.0372 7.80542C33.1428 7.48612 33.2536 7.12196 33.1744 6.44115C33.1005 6.40948 33.1164 6.62586 33.0478 6.53614C32.9871 6.16935 32.9106 6.25115 32.8341 5.66533C32.7787 5.04257 32.4067 4.65994 32.1376 4.01343C32.1245 3.67302 32.5967 4.65466 32.6125 4.50689C32.5914 4.39078 32.5465 4.28786 32.5123 4.17439C32.3355 3.83926 32.1456 3.32469 31.8686 3.14789L31.9081 3.10039C31.5494 2.69137 30.8872 2.09236 30.5865 1.98945C29.9349 1.43529 29.1039 1.03947 28.228 0.83628C27.3495 0.630452 26.4341 0.606702 25.5609 0.712255C25.4448 0.691145 25.3288 0.680589 25.2074 0.667395C24.6904 0.720172 24.511 0.831002 24.4002 0.894334C24.292 0.97086 24.2498 1.02364 24.0414 1.13447C23.9306 1.15294 23.9543 1.09225 23.8884 1.08433C23.4109 1.30863 24.0757 1.08961 23.8989 1.20044C23.3951 1.37196 22.8411 1.75723 22.5034 1.85487C22.4902 1.93931 22.4823 2.02639 22.4797 2.11875C22.696 2.0475 22.8965 2.01056 23.0416 2.01056C22.8147 2.13986 22.5984 2.285 22.3926 2.43805C22.2369 2.48818 22.0153 2.58318 22.1815 2.39319C21.7252 2.69929 21.5247 2.8629 21.3743 2.97109C21.2239 3.08456 21.0894 3.11623 20.8309 3.28511C20.4378 3.85774 20.6963 3.79704 20.6567 4.00023C20.3586 4.63355 19.9629 5.07687 19.8469 5.69964C19.7835 5.43575 19.649 5.67325 19.5514 6.08754C19.4564 6.50184 19.43 7.08766 19.4591 7.46501L19.4722 7.46765ZM32.0427 4.17967C32.6785 5.25895 32.9106 6.89238 32.718 8.25666C32.5835 8.35165 32.5413 8.80553 32.4278 8.94011C32.4146 8.85039 32.3487 8.95859 32.2748 9.06942C32.5835 8.23819 32.7127 7.33307 32.6046 6.4042C32.478 5.31964 32.048 4.34328 31.4122 3.52788C31.705 3.8419 32.0506 4.50689 32.04 4.17967H32.0427ZM31.151 3.20595C30.9162 2.9447 30.655 2.70721 30.3754 2.49082C30.386 2.4961 30.3992 2.50138 30.4071 2.50402C30.655 2.69401 30.9637 2.9579 31.151 3.20858V3.20595ZM29.613 1.98153C29.1988 1.74667 28.7556 1.55404 28.2887 1.41418C28.1964 1.35877 28.1014 1.30335 28.0011 1.26113C28.5393 1.29016 29.1118 1.63057 29.613 1.98153Z" fill="#D18730" fill-opacity="0.9"/>
<path d="M54.4083 40.9016L54.126 38.4818C53.5193 33.2965 52.1053 28.9266 49.884 25.3747C49.3775 24.5646 48.8261 23.8152 48.2405 23.108C49.3485 24.4168 50.314 25.8972 51.0949 27.4726C52.4878 30.2592 53.361 33.3044 53.9308 36.2599C54.3661 37.9962 54.432 39.2101 54.6642 40.8699C54.5956 39.7194 54.5112 38.2021 54.2922 36.5079C54.0653 34.8217 53.6881 32.9825 53.1499 31.2382C52.6118 29.9372 52.8518 30.7051 53.1552 31.7712C53.4612 32.84 53.7672 34.2227 53.7013 34.0828C53.7013 34.2939 53.5166 33.4522 53.3214 32.8136C52.9521 31.3042 52.4508 29.7947 52.5194 29.6945C52.3743 29.4068 52.216 29.1245 52.0657 28.8421C51.4299 27.338 50.6701 25.8207 49.6756 24.3324C48.6889 22.8441 47.449 21.398 45.9031 20.1182C46.8396 20.7884 47.2591 21.1209 48.4014 22.4852C49.454 23.4959 48.9976 22.9338 48.1323 22.0102C47.267 21.0813 45.8662 19.9572 45.3702 19.469C45.5206 19.6406 43.9536 18.5111 43.0144 18.0414C43.2756 18.2024 43.5262 18.3845 43.7768 18.5586C44.1699 18.7777 44.5604 19.002 44.9402 19.2474C47.1589 21.0207 44.6659 19.2606 44.5102 19.2579C42.93 18.2288 42.0489 17.7512 41.0966 17.263C40.1389 16.8012 39.089 16.3051 36.968 15.8881C36.8334 15.933 37.5114 16.0676 37.1975 16.0676C36.6118 15.962 36.3691 15.9515 36.0394 15.9172C35.6885 15.8776 35.2822 15.8301 34.3431 15.7219C32.3909 15.4527 30.8186 15.6823 28.5472 15.8116C28.0645 15.7905 28.6818 15.685 29.3756 15.6216C30.0668 15.5477 30.8344 15.5108 30.626 15.4659C30.2673 15.4659 29.9085 15.458 29.5523 15.4659C28.3599 15.5556 26.7138 15.6427 25.7772 15.9304L25.7271 15.8776C24.904 16.0597 23.8119 16.3156 22.8252 16.627C21.8386 16.9331 20.9601 17.2788 20.5328 17.511C17.9896 18.4689 15.5125 19.9889 13.3836 21.9311C11.252 23.8759 9.48449 26.2587 8.22613 28.8157C8.02827 29.1298 7.84888 29.4517 7.66422 29.7736C6.98887 31.2936 6.84114 31.9137 6.75408 32.3096C6.66966 32.708 6.66966 32.8954 6.49819 33.6316C6.39266 33.9747 6.37683 33.8269 6.30297 34.0063C5.96529 35.6688 6.49555 33.4706 6.39002 34.1251C5.97321 35.7981 5.80437 37.9936 5.67774 39.0861L5.86241 39.6402C5.93891 38.8855 6.06554 38.2311 6.18162 37.8089C6.10247 38.6929 6.05763 39.5927 6.0629 40.511C6.01806 41.0335 5.97057 41.8067 5.90726 40.9755C5.90726 42.8015 5.99959 43.6275 6.03916 44.2291C6.06818 44.53 6.08665 44.7754 6.10247 45.063C6.11039 45.2055 6.1183 45.3585 6.12622 45.538C6.13149 45.6277 6.13413 45.7201 6.13941 45.823C6.14205 45.9101 6.16843 46.1396 6.18425 46.3217C6.22383 46.5434 6.26076 46.7492 6.29769 46.9392C6.30561 46.9577 6.29769 46.9946 6.3188 46.9999L6.39002 46.9893L6.5272 46.9709C6.61426 46.9577 6.69868 46.9471 6.78046 46.9366C6.93611 46.9128 7.0812 46.8917 7.21574 46.8732C7.32127 46.8548 7.42151 46.8389 7.51385 46.8231C7.76974 46.773 7.9122 46.7307 8.00717 46.6938C8.19711 46.6173 8.19447 46.5592 8.50049 46.4827C10.7877 46.1264 12.6238 46.1133 14.6129 45.8362C13.1356 46.2795 17.9712 45.6515 20.3217 45.3691C23.3608 45.0261 21.3189 45.0155 24.5347 44.6619C26.1492 44.6012 21.3004 45.2108 23.4241 45.0999L24.8961 44.873C25.8274 44.6593 26.5634 44.4376 27.6872 44.2318C28.3599 44.1526 29.3677 44.0312 29.3993 44.0682C28.0856 44.2661 28.4997 44.3188 29.8926 44.2133C30.5337 44.0972 30.692 44.0655 30.998 43.989C28.2518 44.0207 33.8471 43.638 35.736 43.2501C41.2759 42.3635 38.6906 43.2448 44.1488 42.4822C42.442 42.4294 47.7524 41.9281 49.5279 41.6246C51.0474 41.4531 51.6067 41.4584 52.6777 41.4135C53.0919 41.337 54.2632 41.1866 54.4347 41.118C54.2342 41.0652 53.8886 41.0309 53.4348 41.0098L54.4109 40.8963L54.4083 40.9016ZM28.8427 23.6964C31.2407 23.4167 33.2245 23.6621 34.7916 24.43C34.9182 24.4933 35.0395 24.5646 35.1609 24.6358C34.9657 24.5329 34.752 24.4247 34.5568 24.3509C34.1716 24.1978 33.8946 24.1424 34.1057 24.3113C33.2483 23.9788 32.1904 23.765 31.0982 23.7281C30.0061 23.6885 28.8796 23.8073 27.8772 24.0368C27.6767 23.9682 27.0198 24.1635 26.7718 24.1872C26.8747 24.116 26.7111 24.1345 26.5238 24.1609C27.2467 23.9524 28.0143 23.7967 28.8401 23.6991L28.8427 23.6964ZM38.5244 28.5255C38.6642 28.8237 38.7935 29.143 38.9228 29.4728C38.9624 29.6391 39.0019 29.8053 39.0362 29.9742C38.6985 29.2802 38.411 28.3592 37.9968 27.5386C38.1815 27.8499 38.3609 28.1772 38.5244 28.5281V28.5255ZM37.092 26.2587C37.092 26.2587 37.084 26.2534 37.0814 26.2508C36.7543 25.855 36.261 25.4328 35.889 25.1056C36.3216 25.4328 36.72 25.8207 37.092 26.2587ZM24.8381 24.7836C24.0308 25.1953 23.2473 25.6914 22.5667 26.3273C21.5115 27.2931 20.7253 28.5439 20.2716 29.8396C20.0948 30.6392 19.9102 31.1485 19.7492 31.8979C20.1291 30.9189 20.7544 29.3198 21.7014 28.0716C21.9837 27.5333 21.7463 27.7787 21.4508 28.1666C21.1553 28.5545 20.8599 29.1087 20.8651 29.0348C20.7807 29.0955 20.9575 28.7551 21.0973 28.4912C21.4693 27.9027 21.9705 27.404 22.0708 27.4515C22.1341 27.3248 22.1947 27.1929 22.2686 27.0688C23.2394 26.016 24.6059 25.2375 26.2574 24.7229C25.8168 24.971 25.6163 25.0501 24.904 25.3219C24.4424 25.7626 24.6983 25.5885 25.1573 25.3272C25.6163 25.0607 26.3286 24.7572 26.6452 24.7942C26.5317 24.7467 27.3258 24.5329 27.769 24.4511C27.6345 24.4511 27.4999 24.459 27.368 24.4643C27.1833 24.525 27.0013 24.5963 26.8193 24.6675C25.6322 24.9472 26.843 24.4379 26.8984 24.3825C27.7057 24.1609 28.1621 24.1741 28.6343 24.1793C29.1091 24.1925 29.6077 24.1978 30.5363 24.1609C30.5891 24.087 30.2884 24.0975 30.4203 24.0316C30.94 23.9973 30.8476 23.9102 31.6865 23.992C32.5228 24.182 33.2536 24.0738 34.169 24.5171C34.3325 24.6675 34.074 24.5778 33.7865 24.5013C33.4989 24.4221 33.1771 24.3509 33.2483 24.4247C33.3907 24.4802 33.5279 24.5461 33.6677 24.6095C34.1584 24.7546 34.7098 25.1557 35.0923 25.285L35.0738 25.3457C35.7122 25.636 36.5142 26.4909 36.8334 26.7601C38.1999 28.6126 39.1101 31.1379 39.5955 33.6316L39.5876 34.133C39.7986 35.6635 39.8567 35.0698 39.978 35.5104C39.8936 35.5104 39.8646 35.455 39.8092 35.4339C39.7037 35.4682 39.7195 35.4841 39.7802 35.4946C39.8382 35.5052 39.9384 35.5104 39.8857 35.5368C39.5823 35.5791 39.2314 35.6266 38.9149 35.6688C38.5086 35.7189 38.134 35.7506 37.8807 35.7321L37.6565 35.9643C37.9889 35.9854 38.2896 36.0224 38.4954 36.0752L37.2898 36.215C37.0445 36.1913 36.6751 36.1781 37.0524 36.0778C35.3772 36.1701 35.5329 36.1517 34.6649 36.0329C33.6704 36.186 33.9658 36.3021 33.6915 36.4182C32.6415 36.6293 31.7815 36.529 30.8661 36.6821C31.5309 36.3338 29.3044 36.6583 28.2201 36.7903C26.8167 36.9407 27.7743 37.0806 26.289 37.231C25.5372 37.1887 27.7716 36.8853 26.7824 36.8642L26.107 36.9987C25.6849 37.1518 25.3525 37.326 24.8381 37.4605C24.5268 37.4975 24.0625 37.5555 24.0467 37.516C24.6508 37.4025 24.4529 37.3233 23.8066 37.3418C23.5138 37.4183 23.4399 37.4368 23.3027 37.4948C24.5875 37.6347 21.989 37.6664 21.129 37.9355C20.4932 38.0701 20.0896 38.1255 19.802 38.1414C19.554 38.1519 19.4459 38.1176 19.3694 38.078C19.2533 38.0859 19.3641 37.8616 19.3773 37.7297C19.3905 37.6347 19.401 37.6373 19.3984 37.3787C19.3984 37.1676 19.3905 36.9117 19.3746 36.5976C19.1108 37.3682 19.2506 34.9299 19.2823 34.104C19.3667 33.4073 19.4802 33.1672 19.6437 32.7054C19.649 32.5127 19.7519 31.9876 19.7255 31.8953C19.6358 31.9559 19.5329 32.0879 19.4274 32.2594C19.4564 32.1222 19.4775 31.9744 19.5092 31.8425C20.108 29.3752 21.1817 27.4752 22.7355 26.1426C23.3608 25.6069 24.0678 25.1583 24.8513 24.7915L24.8381 24.7836ZM47.8052 22.604C47.8474 22.6488 47.887 22.6937 47.9292 22.7385C47.8896 22.6937 47.8474 22.6488 47.8052 22.604ZM28.8453 15.9541C30.8819 15.7747 33.2509 15.7588 35.6384 16.1072C38.0232 16.4449 40.4054 17.1785 42.4525 18.1839C42.7744 18.4478 44.0961 19.1629 44.505 19.5297C44.2649 19.4057 44.5815 19.6643 44.9139 19.944C43.7056 19.0495 42.3866 18.3 40.9541 17.6957C37.2239 16.1283 32.8948 15.6322 27.9695 16.2074C27.3997 16.2734 26.8404 16.3579 26.289 16.4528C26.8114 16.3552 27.4049 16.2576 27.9141 16.1916C28.8058 16.0729 29.4204 15.999 28.8453 15.9568V15.9541ZM24.9463 16.722C23.6061 17.0149 22.324 17.3923 21.0999 17.862C21.1448 17.8409 21.1817 17.8224 21.2002 17.8092C22.3293 17.3685 23.8699 16.9067 24.9463 16.722ZM18.2666 19.155C17.3222 19.6643 16.4174 20.2343 15.5547 20.865C15.093 21.2027 14.6472 21.5563 14.2172 21.9205C13.9349 22.129 13.6553 22.3427 13.3836 22.567C14.5892 21.2845 16.4305 20.0891 18.2666 19.1576V19.155Z" fill="#D18730" fill-opacity="0.9"/>
<path d="M30.5495 36.347H30.7131C30.8846 36.3681 30.5759 36.405 30.51 36.4446C30.8292 36.4261 31.122 36.3496 31.1035 36.31C30.9479 36.3285 30.7131 36.347 30.5495 36.347Z" fill="#D18730" fill-opacity="0.9"/>
<path d="M32.0427 24.372C32.7629 24.4907 33.0399 24.4907 33.6625 24.6464C33.0504 24.4775 32.3883 24.2981 32.0427 24.372Z" fill="#D18730" fill-opacity="0.9"/>
<path d="M14.0299 46.2505C14.3649 46.2109 14.8767 46.1607 15.2276 46.137L14.8767 46.1581C14.51 46.1607 15.1827 46.0816 15.3252 46.0341C14.6367 46.0948 13.9956 46.2135 14.0299 46.2505Z" fill="#D18730" fill-opacity="0.9"/>
<path d="M29.5207 15.4316C31.0481 15.2759 32.6521 15.3788 33.4488 15.3129C31.6997 15.2179 31.0481 15.305 29.5207 15.4316Z" fill="#D18730" fill-opacity="0.9"/>
<path d="M37.3505 10.1144C37.0154 9.77926 37.0049 9.24358 37.3215 8.89261L44.9244 0.519621C45.2647 0.144908 45.8477 0.131714 46.2065 0.487955L46.9742 1.25585C47.3303 1.61209 47.3171 2.19791 46.9425 2.53832L38.5719 10.1434C38.2211 10.4601 37.6855 10.4469 37.3505 10.1144Z" fill="#D18730" fill-opacity="0.9"/>
<path d="M41.0174 5.18506L41.1018 5.09798C40.838 5.39089 40.5558 5.68908 40.2735 5.98463C40.9304 5.38562 41.6875 4.65994 42.0172 4.03454C42.136 4.04245 42.748 3.43552 42.7427 3.4065C42.8667 3.24553 42.9749 3.10567 43.0751 2.97637C43.4365 2.52513 43.8349 2.07125 44.2543 1.61473C44.4627 1.39307 44.6764 1.16349 44.898 0.926C45.1355 0.662118 45.2753 0.52226 45.518 0.511704C45.6393 0.501149 45.8293 0.532815 45.9744 0.672673C46.1775 0.88114 46.407 1.11863 46.6365 1.35349C46.7711 1.49071 46.8291 1.5514 46.8687 1.65432C46.9109 1.75195 46.9162 1.85751 46.9056 1.94986C46.8898 2.04486 46.8528 2.12667 46.808 2.18736C46.7631 2.25069 46.713 2.28763 46.6312 2.35888C46.5495 2.43013 46.4677 2.49874 46.3859 2.56735C46.4791 2.4917 46.5714 2.41518 46.6629 2.33777C46.3384 2.66499 46.0377 2.96845 45.7791 3.22969C45.8398 3.19275 45.8583 3.19539 45.9928 3.09775L45.8372 3.22706C45.7264 3.38011 45.4125 3.66246 45.2779 3.81024C45.2964 3.76538 45.1777 3.86829 45.0721 3.96065L45.1223 3.93426C44.7266 4.29578 44.2834 4.69952 43.9378 5.01618C43.8903 5.06104 43.8481 5.08743 43.8217 5.10326L43.4998 5.41728C43.5078 5.37242 43.207 5.6495 43.3548 5.49381C43.1279 5.7445 42.8614 5.95824 42.6451 6.20101C41.7983 6.97683 40.9093 7.81333 40.0624 8.64456L40.0915 8.63137C39.796 8.92428 39.5612 9.20927 39.176 9.53649C38.9254 9.80301 38.5877 10.1698 38.4796 10.2991C38.2896 10.4179 38.1287 10.4522 37.9704 10.4654C37.8122 10.4706 37.6433 10.4548 37.4428 10.3387C37.4877 10.3809 37.3821 10.3334 37.3004 10.2701C37.2133 10.2041 37.1685 10.1619 37.2291 10.2384C37.4534 10.4812 37.5009 10.4548 37.7568 10.563L37.7515 10.5524C38.0707 10.6316 38.4321 10.5577 38.6959 10.344C38.907 10.1645 39.1127 9.98773 39.3159 9.81356C39.73 9.44941 40.1337 9.0958 40.5346 8.74484C41.0544 8.24082 41.6506 7.72625 42.2019 7.21432C42.7717 6.67336 43.3996 6.07699 43.9325 5.57033C44.0512 5.45159 44.1541 5.39089 44.2675 5.30381C44.7503 4.85521 45.3175 4.33272 45.8662 3.82607C45.8556 3.83399 45.8477 3.8419 45.8398 3.84982C46.1168 3.60705 46.3542 3.39858 46.626 3.16109C46.6181 3.15581 46.6629 3.11623 46.6787 3.09511C46.6972 3.08984 46.8054 2.9922 46.9584 2.84706C47.0903 2.73623 47.3963 2.43013 47.4253 2.08181C47.4833 1.73348 47.3435 1.38516 47.1615 1.19252C46.9847 1.01308 46.8819 0.923361 46.8581 0.891695C46.8291 0.862668 46.7974 0.83628 46.7711 0.809892C46.6444 0.675312 46.5099 0.527537 46.3648 0.374486C46.2144 0.202962 45.9849 0.0631041 45.7475 0.0208829C45.5074 -0.0266159 45.2568 0.00768878 45.0431 0.115881C44.9376 0.168657 44.84 0.237267 44.7608 0.31907C44.6843 0.395596 44.6369 0.451011 44.5762 0.516982C44.4918 0.635729 44.4126 0.749199 44.3203 0.875862C44.228 0.955027 44.2359 0.991971 44.1356 1.09752C43.8322 1.31919 43.7109 1.49863 43.8586 1.37724C43.6634 1.60682 43.455 1.82848 43.2756 2.02903C43.1991 2.12403 43.12 2.21902 43.0382 2.31666C42.9722 2.4011 42.9221 2.43541 42.8746 2.46444C42.6979 2.6729 42.7401 2.60165 42.5422 2.80748C42.4763 2.84179 42.0911 3.36691 42.0304 3.42233L42.0595 3.38539C41.8326 3.62816 41.6479 3.75482 41.429 3.99232C40.8117 4.64411 40.1653 5.38298 39.5981 5.99518C39.614 6.01893 39.7168 5.85533 39.7511 5.8738C39.4346 6.20101 39.0415 6.61003 38.7223 6.93988C38.6563 7.00058 38.5719 7.07182 38.5403 7.09557C38.4268 7.2064 38.4875 7.17474 38.4057 7.25654L38.3767 7.25126C38.2791 7.39112 38.1894 7.41487 38.0892 7.54154C38.0892 7.55473 38.0522 7.59959 38.0153 7.63917C37.9942 7.62334 37.8992 7.76848 37.886 7.74736C37.8623 7.77375 37.8465 7.79486 37.8174 7.82125C37.7752 7.87931 37.4375 8.36221 37.3901 8.43082L37.3663 8.44929C37.3056 8.5179 37.2951 8.56012 37.3347 8.52318L37.2582 8.60498L37.2661 8.59443L37.1896 8.67623C37.1737 8.68942 37.15 8.69998 37.1632 8.66831C37.0893 8.76595 37.0682 8.79762 37.0207 8.86095C37.055 8.81345 37.0972 8.77123 37.1394 8.72901C37.1737 8.69734 37.2107 8.66567 37.2503 8.63137C37.3188 8.57068 37.3953 8.50735 37.4745 8.44138C37.4296 8.50471 37.3294 8.59443 37.274 8.65776C37.208 8.70526 37.0155 8.87678 36.9363 9.06678C36.9205 9.109 36.9363 9.14594 36.902 9.23566C36.8704 9.27788 36.8809 9.34385 36.8598 9.42302C36.8572 9.32802 36.8756 9.23566 36.9073 9.14594C36.873 9.15122 36.8334 9.37288 36.8308 9.44941C36.8308 9.48635 36.8334 9.67634 36.8756 9.78718C36.8387 9.74232 36.8862 9.88481 36.9047 9.95342C36.9363 10.0299 36.9706 10.0695 36.9601 10.0379C36.9838 10.0511 36.8519 9.73968 36.9178 9.83204C36.9152 9.8637 36.9732 10.0062 37.0234 10.0748C37.0366 10.0695 37.0049 10.022 37.0418 10.059C37.084 10.1381 37.1606 10.2015 37.1843 10.2463C37.1711 10.2358 37.1474 10.2067 37.1289 10.1883C37.1685 10.2331 37.0418 10.1302 36.9521 9.993C36.8598 9.85842 36.8123 9.70009 36.8334 9.77926C36.8334 9.75815 36.8941 9.92967 36.9996 10.0616C37.0498 10.1302 37.1078 10.1883 37.15 10.2252C37.1685 10.2411 37.1869 10.2542 37.1975 10.2648C37.2951 10.1724 37.3268 10.1408 37.3531 10.1144L37.2028 10.2648L37.2001 10.2569V10.2516L37.1948 10.2463C37.1948 10.2463 37.2028 10.2463 37.2107 10.249C37.2133 10.249 37.2186 10.2516 37.2186 10.2516L37.3531 10.117L37.2212 10.249V10.2463L37.2107 10.2305L37.1447 10.183C37.0867 10.1012 37.0867 10.0537 37.1131 10.0774C37.1605 10.1434 37.0682 10.0695 36.997 9.96662C36.9231 9.86634 36.8756 9.74232 36.902 9.81093L36.8941 9.75023C36.9337 9.85051 36.9389 9.86634 36.9996 10.0247C37.0128 10.0168 37.055 10.0906 37.1025 10.1408L37.1157 10.1619C37.1632 10.2147 37.2291 10.2859 37.2107 10.2411C36.9574 9.94814 37.4692 10.3361 37.245 10.0563C37.3162 10.1856 37.179 10.0458 37.1131 9.90328C37.1157 9.88481 37.0972 9.81884 37.0814 9.71065C37.0603 9.62093 37.0603 9.65787 37.0498 9.64204C37.0445 9.58926 37.0498 9.48899 37.0656 9.50218C37.0471 9.4283 37.0814 9.38871 37.092 9.30427C37.0999 9.22775 37.0814 9.30691 37.0867 9.25149C37.1157 9.13803 37.1948 8.99553 37.2582 8.92692C37.2925 8.90581 37.3795 8.84775 37.3479 8.919C37.2423 9.04303 37.3584 8.84512 37.2555 8.98497C37.3215 8.94011 37.1764 9.11691 37.1975 9.16177C37.2291 9.11691 37.2819 9.02456 37.3373 8.95331L37.3215 8.96386C37.3663 8.90053 37.4771 8.77387 37.5483 8.71845C37.5431 8.7422 37.5747 8.71845 37.5378 8.76595L37.6169 8.68415C37.6249 8.67095 37.6301 8.65776 37.6064 8.67887C37.6354 8.63401 37.675 8.59707 37.7093 8.57068C37.7277 8.57068 38.076 8.08777 38.0681 8.10624C38.1234 8.04555 38.1498 8.04291 38.1947 7.97694C38.1947 7.97694 38.0707 8.12208 37.9572 8.26457C37.8438 8.40707 37.7383 8.54165 37.7726 8.49943C37.8306 8.45721 38.3477 7.77111 38.4004 7.75C38.44 7.70514 38.4875 7.64973 38.469 7.64973C38.5429 7.57848 38.469 7.68931 38.5244 7.64181C38.5244 7.64181 38.5165 7.64181 38.5324 7.62598L38.5904 7.58376C38.6827 7.45182 38.8595 7.29876 38.9518 7.15627C38.9307 7.20113 38.9096 7.25918 38.8489 7.34626L38.8305 7.35682C38.8225 7.37001 38.7671 7.43862 38.7777 7.44654C38.8516 7.37793 38.9096 7.31196 38.9729 7.22224L39.0204 7.18529H39.0151C39.0441 7.16155 39.0441 7.16682 39.0389 7.18002V7.18793C39.1075 7.16682 39.2868 6.87655 39.4267 6.75253C39.4583 6.70767 39.4267 6.74461 39.4662 6.6892C39.614 6.5467 39.7195 6.44642 39.8408 6.32768C39.8725 6.26962 39.8699 6.26171 39.8065 6.30657L39.9121 6.19837C39.8514 6.32768 40.131 6.01893 40.0598 6.15879C40.0967 6.1324 40.1574 6.06907 40.2102 6.00046C40.2102 5.98727 40.2049 5.96616 40.2761 5.88699C40.3843 5.78936 40.35 5.82102 40.4502 5.72866C40.4792 5.71547 40.4529 5.75241 40.4661 5.75769C40.5795 5.60728 40.598 5.65741 40.7167 5.52283C40.7879 5.43839 40.933 5.27478 40.9198 5.25367C41.0201 5.14284 41.0333 5.15604 41.0385 5.17979L41.0174 5.18506Z" fill="#D18730" fill-opacity="0.9"/>
<path d="M40.7299 13.0329C40.6613 12.5659 40.9699 12.1252 41.4342 12.0355L52.5273 9.84787C53.0233 9.75023 53.5008 10.088 53.5747 10.5867L53.7329 11.6607C53.8068 12.1621 53.448 12.6213 52.9442 12.6714L41.6928 13.785C41.2232 13.8325 40.7984 13.5 40.7299 13.0329Z" fill="#D18730" fill-opacity="0.9"/>
<path d="M41.3947 13.3918C41.5899 13.4868 41.6954 13.4683 41.7798 13.5C41.851 13.5238 41.8642 13.5554 42.0014 13.5686L41.64 13.624C41.4342 13.6293 41.1968 13.4974 41.1018 13.3443C41.0042 13.1913 41.0121 13.0752 41.0517 13.1147C41.0675 13.1464 41.2232 13.3179 41.3947 13.3892V13.3918Z" fill="#D18730" fill-opacity="0.9"/>
<path d="M40.8459 13.062C40.8591 13.12 40.8565 13.1332 40.8776 13.1913C40.8354 13.1438 40.7985 13.0883 40.7642 13.0303L40.8459 13.0646V13.062Z" fill="#D18730" fill-opacity="0.9"/>
<path d="M42.5475 13.4868L42.8931 13.4446C42.9749 13.4446 42.7797 13.4763 42.7902 13.4842L43.1833 13.4736C42.6504 13.5 42.6662 13.5633 42.5475 13.4868Z" fill="#D18730" fill-opacity="0.9"/>
<path d="M47.1562 13.3892C47.4227 13.4024 46.961 13.4763 46.8581 13.5158C46.6392 13.5343 46.4413 13.5106 46.6128 13.4631C46.903 13.4367 47.0164 13.405 47.1562 13.3892Z" fill="#D18730" fill-opacity="0.9"/>
<path d="M44.5788 13.2625C44.4548 13.339 43.6898 13.376 43.7716 13.4314C43.8059 13.4551 43.8428 13.4763 43.9351 13.4842L44.315 13.4129C45.2753 13.3443 43.9246 13.5317 44.5735 13.5264C44.7134 13.5106 44.7819 13.5026 44.84 13.4868C45.1513 13.4235 45.059 13.4156 44.8716 13.4024C45.7844 13.3021 45.4547 13.5132 45.9506 13.4631C46.6312 13.3733 46.2012 13.3074 46.3622 13.252C46.3648 13.3601 47.6152 13.3179 48.6204 13.2256C49.5542 13.0883 50.62 13.0857 51.7386 12.9089C51.976 12.8931 52.2583 12.8746 52.5537 12.8535C52.7067 12.8403 52.8465 12.835 53.018 12.8165C53.2 12.7928 53.3768 12.7163 53.5219 12.6002C53.5245 12.6054 53.5298 12.6081 53.5324 12.6134C53.5456 12.5975 53.5483 12.587 53.5456 12.5817C53.6617 12.5052 53.791 12.36 53.8648 12.1648C53.944 11.98 53.9413 11.7214 53.9044 11.5526C53.8517 11.2121 53.8094 10.9166 53.8622 10.8506L53.8358 10.7398C53.7936 10.4706 53.7857 10.4231 53.8147 10.468C53.8358 10.5023 53.878 10.5788 53.8358 10.3651C53.7356 10.0273 53.4454 9.68954 53.0866 9.56288C52.9125 9.49691 52.7278 9.48107 52.5775 9.50218C52.4113 9.52857 52.3585 9.56024 52.2873 9.59718C52.2451 9.59718 52.2978 9.58135 52.2556 9.58399L51.8441 9.68426C51.8203 9.71329 51.7438 9.76079 51.8177 9.77134C51.7201 9.78981 51.6436 9.83468 51.5038 9.85315C51.1582 9.92176 51.451 9.81093 51.3244 9.81356C50.4565 10.0141 49.4593 10.2173 48.6204 10.3281C48.6045 10.2411 47.6495 10.4442 47.2486 10.5287C46.4307 10.6105 45.5338 10.9562 44.9112 11.0037C45.2621 10.877 45.8952 10.8163 45.9533 10.7398L45.7818 10.7451C45.4045 10.8005 44.8004 10.8744 44.592 10.9826C44.8057 10.9773 44.8268 11.0037 44.9007 11.0169C44.7371 11.0644 44.7134 11.096 44.5076 11.1435C44.2042 11.2095 43.8692 11.2649 43.8613 11.2201C44.0248 11.1726 44.2068 11.1514 44.3599 11.1171C44.4073 11.0565 43.8639 11.162 43.6819 11.1805C44.0222 11.228 43.1859 11.4417 44.0591 11.3441L43.5922 11.4602C43.2519 11.6291 45.1328 11.2544 44.3388 11.5262C44.2622 11.571 44.3783 11.5842 44.1066 11.6634C44.2675 11.6739 44.5709 11.6053 44.6896 11.5578C44.9139 11.5948 45.8688 11.3335 45.9163 11.4338C46.6893 11.1937 47.0929 11.2676 47.8157 11.1462C48.7338 10.9878 48.1218 11.0221 48.375 10.9113C48.8393 10.8533 49.2851 10.7108 49.5569 10.629C49.8048 10.5788 49.9658 10.5867 49.8022 10.6369C50.7387 10.5023 51.7122 10.3413 52.6223 10.1856C52.9151 10.1566 53.1869 10.3624 53.208 10.687C53.2396 10.9245 53.2739 11.162 53.3056 11.3995L53.3504 11.7373C53.3557 11.8059 53.3504 11.8718 53.3293 11.9352C53.2818 12.0328 53.208 12.112 53.1288 12.17C53.0866 12.1964 53.0418 12.2175 52.9969 12.2334C52.9494 12.2466 52.9125 12.2518 52.8017 12.2624C52.4324 12.2993 52.063 12.3284 51.6752 12.3046L51.8045 12.3125C51.823 12.3231 51.728 12.3389 51.6515 12.3521L52.0208 12.3864C51.794 12.3996 51.5671 12.4154 51.3428 12.4392C51.1028 12.55 50.0607 12.5659 49.7521 12.682C48.5043 12.777 49.0213 12.6872 47.763 12.7743C47.0929 12.872 46.2988 12.9933 45.5021 13.062C45.212 13.0883 44.9455 13.0752 44.993 13.0514C44.6342 13.0883 44.1488 13.1385 43.7927 13.1754C42.2705 13.4103 44.0064 13.3126 44.5841 13.2625H44.5788Z" fill="#D18730" fill-opacity="0.9"/>
<path d="M49.5701 10.0273C49.6149 9.96661 49.2377 10.022 49.1084 10.0273L48.9448 10.0748C48.5333 10.1751 48.5307 10.2331 48.7997 10.2094C48.8894 10.1487 49.3326 10.0643 49.5701 10.0273Z" fill="#D18730" fill-opacity="0.9"/>
<path d="M53.1473 9.47843C53.1156 9.48371 53.084 9.49163 53.055 9.49954C53.295 9.56288 53.5166 9.7001 53.6828 9.89009C53.7039 9.85051 53.4348 9.56815 53.1499 9.47579L53.1473 9.47843Z" fill="#D18730" fill-opacity="0.9"/>
<path d="M42.223 11.8243C42.7084 11.7373 42.9116 11.7452 43.4233 11.6291L43.3099 11.5605C42.8034 11.6185 42.2652 11.6634 41.6717 11.7821C41.2865 11.9537 42.4024 11.703 42.2257 11.8243H42.223Z" fill="#D18730" fill-opacity="0.9"/>
<path d="M43.3073 11.7795C42.872 11.9088 42.3892 11.9906 41.9223 12.0777C41.698 12.1278 41.4395 12.1516 41.2865 12.2307C41.1203 12.3178 41.0121 12.4709 40.9805 12.6186C41.1177 12.587 41.2126 12.3679 41.5609 12.2967C41.975 12.1938 42.4314 12.0645 42.7216 12.0407C43.0936 11.9431 43.3574 11.8718 43.7768 11.7637C44.1145 11.6528 43.5421 11.7425 43.3046 11.7768L43.3073 11.7795Z" fill="#D18730" fill-opacity="0.9"/>
<path d="M40.8327 12.7822C40.8248 12.8245 40.8248 12.872 40.8275 12.9142C40.8275 12.9353 40.8327 12.9538 40.8354 12.9722L40.8407 12.996V13.0065L40.8433 13.0118V13.0145L40.7272 13.0329L40.8591 13.0145V12.9802C40.8644 12.9406 40.8723 12.8825 40.8829 12.8509C40.8855 12.777 40.904 12.55 40.8275 12.7849L40.8327 12.7822Z" fill="#D18730" fill-opacity="0.9"/>
<path d="M16.5123 13.4472C16.8236 13.091 16.7972 12.5527 16.4569 12.2281L8.29208 4.40397C7.92802 4.05301 7.34501 4.0794 7.01261 4.46203L6.30033 5.28006C5.96793 5.66269 6.02333 6.24323 6.41904 6.55725L15.2962 13.5633C15.6681 13.8562 16.201 13.8061 16.5123 13.4499V13.4472Z" fill="#D18730" fill-opacity="0.9"/>
<path d="M16.4121 12.616C16.4728 12.7084 16.2986 12.3363 16.4279 12.5289C16.3989 12.3864 15.9794 12.0882 15.8 11.8956C15.8106 11.8375 16.019 11.9748 15.6892 11.6027C15.2302 11.1224 15.5573 11.6185 15.1247 11.2121L15.4096 11.5024C15.0587 11.2834 14.3992 10.5735 13.8822 10.1038C13.5471 9.70009 13.2912 9.28316 12.7821 8.82928C12.8137 8.85039 12.9483 8.95331 12.943 8.91109C12.8691 8.80817 12.7003 8.66304 12.6001 8.58123C12.302 8.3754 12.6159 8.7079 12.4893 8.6472C12.2545 8.46249 12.0223 8.29888 11.7427 7.9875L11.4446 7.54945C11.0964 7.40959 10.793 6.92933 10.2548 6.47545C10.2047 6.32768 9.60848 5.89755 9.56099 5.74977C9.32093 5.52283 9.65069 5.56506 9.49504 5.34076C9.18902 4.98451 9.75093 5.54131 9.44492 5.18506C9.83271 5.51492 9.42909 5.43575 9.93824 5.88963L9.93296 5.84741C10.1651 6.01102 10.4553 6.40684 10.6452 6.48601C11.1623 7.00322 10.5635 6.55198 10.7824 6.84489C10.975 6.94516 11.5897 7.50459 11.6715 7.45973L11.2599 7.06655C11.3285 7.12988 11.2889 7.06655 11.3232 7.08502C11.5475 7.42015 12.5367 7.88194 12.1463 7.87139C12.0804 7.83181 11.9432 7.68667 11.8799 7.66556C11.8588 7.72889 12.1621 7.97694 12.3679 8.18277C12.6291 8.34638 12.9509 8.50735 13.2649 8.86095C13.3704 8.98497 13.2754 8.94539 13.3836 9.06942C14.1249 9.6869 13.9956 9.76606 14.7474 10.4442C15.1511 10.9351 15.7473 11.4338 16.1509 11.9246C16.1166 11.8217 16.4754 12.1885 16.5545 12.2993C16.6073 12.3811 16.7313 12.7084 16.6996 12.9564C16.7075 12.8139 16.6785 12.8984 16.6627 12.8034C16.6917 13.0699 16.5862 13.2176 16.5255 13.2783C16.4912 13.31 16.4622 13.3258 16.4385 13.3311C16.4279 13.3338 16.4174 13.3364 16.4068 13.3364H16.3857L16.5176 13.4525C16.2512 13.2203 16.4437 13.3892 16.3857 13.3364L16.391 13.3258L16.4147 13.2863L16.4385 13.2361C16.4516 13.2045 16.4596 13.1728 16.4675 13.1464C16.478 13.0883 16.4807 13.0408 16.4754 12.9933C16.4675 12.8957 16.4675 12.8007 16.4147 12.6266L16.4121 12.616Z" fill="#D18730" fill-opacity="0.9"/>
<path d="M8.2314 4.55702C8.30263 4.55702 8.16017 4.37494 8.00189 4.3037C7.84888 4.22981 7.70115 4.20078 7.95968 4.19814C7.62464 4.08204 7.44262 4.17439 7.29225 4.27731C7.6563 4.17439 7.21574 4.31953 7.41624 4.29578C7.28433 4.3512 7.1709 4.43564 7.08384 4.54647C6.98095 4.67049 6.88335 4.79188 6.78574 4.91063C6.60371 5.15604 6.34254 5.3777 6.26604 5.60728C6.17898 5.85005 6.2291 6.12976 6.38739 6.32504C6.45861 6.42003 6.5826 6.50184 6.69868 6.59947L7.04427 6.87655C7.68268 7.48612 8.3422 7.90833 9.05448 8.36485C9.44228 8.71053 9.12571 8.5654 8.99908 8.53901L9.50823 8.94539L8.94896 8.59443C8.90675 8.61554 9.13626 8.80026 9.24442 8.92692L9.39479 9.03247C9.10197 9.05622 8.37386 8.22235 7.85152 7.88194C8.44772 8.33582 7.8014 7.75792 8.07312 7.92417L7.89373 7.77375C8.05993 7.90042 8.41607 8.11416 8.84871 8.43874C8.26834 7.96375 7.67213 7.51251 7.09439 7.09293C6.80684 6.87391 6.51401 6.70239 6.24757 6.46753C5.99959 6.20629 5.92572 5.80783 6.0418 5.47534C6.03916 5.5202 6.01806 5.62311 6.07346 5.51228C6.16843 5.28534 6.29769 5.14548 6.35837 5.01618C6.4296 4.88688 6.47708 4.77869 6.52984 4.69424L6.42696 4.86313C6.53512 4.77341 6.64856 4.63355 6.76199 4.48578C6.85696 4.34592 7.0258 4.13481 7.21574 4.05301C7.43207 3.9844 7.61937 3.98704 7.82514 4.02926C8.02299 4.0662 8.27625 4.19287 8.49521 4.40925L8.45036 4.42508L8.79068 4.78132C8.69834 4.70216 8.72208 4.74966 8.73264 4.77341C8.69834 4.75757 8.68515 4.73382 8.62711 4.67049C8.56116 4.69424 8.68251 4.93438 8.84871 5.15604C8.79067 5.0927 8.73 5.02937 8.68515 4.98979C8.82761 5.16395 9.35786 5.73658 9.03338 5.51492C8.5638 5.06368 8.6746 4.96604 8.22876 4.55966L8.2314 4.55702Z" fill="#D18730" fill-opacity="0.9"/>
<path d="M10.4685 6.29865C10.1519 5.94505 10.5951 6.35934 10.5529 6.25379L10.8616 6.54406C10.8378 6.58628 10.5292 6.29865 10.4685 6.29865Z" fill="#D18730" fill-opacity="0.9"/>
<path d="M11.347 10.1592C11.3549 10.2147 11.6055 10.3888 11.7348 10.5049C12.0223 10.6923 12.1146 10.7055 12.4893 11.0301C12.1173 10.8849 12.7188 11.3916 12.9509 11.666C12.7504 11.5262 12.3547 11.3019 12.0909 11.0169C12.1489 11.0169 11.8904 10.7873 11.7611 10.6738C11.5184 10.5551 11.8192 10.9403 10.9592 10.2912C10.8167 10.154 10.4131 9.87426 10.479 9.84259C10.3867 9.73968 10.2363 9.72384 10.1493 9.58662L10.1071 9.51802L10.6611 9.90328C10.6743 9.9244 10.7033 9.97189 10.7534 10.0062C10.6822 9.89273 11.3839 10.3836 11.0911 10.0511L10.3656 9.48371C10.2073 9.32274 10.479 9.48635 10.7455 9.68426C11.0964 10.0168 11.0832 9.99564 11.3549 10.1592H11.347Z" fill="#D18730" fill-opacity="0.9"/>
<path d="M9.45283 8.85303L9.42381 8.80817L10.0701 9.29372L9.45283 8.85303Z" fill="#D18730" fill-opacity="0.9"/>
<path d="M13.7212 12.0012C13.5841 11.9193 13.4917 11.8164 13.3545 11.7346L13.3915 11.6581L13.7212 12.0012Z" fill="#D18730" fill-opacity="0.9"/>
<path d="M6.83322 7.15627C6.72506 7.11932 6.57205 7.00849 6.42168 6.9003C6.28714 6.80794 6.09456 6.65753 6.00223 6.56781C6.12622 6.72614 6.09984 6.65489 6.13941 6.68392C6.05499 6.58892 5.99168 6.48073 5.94419 6.36726C6.05499 6.55461 6.2634 6.72614 6.39266 6.81322C6.53512 6.92405 6.66966 7.02433 6.83586 7.15363L6.83322 7.15627Z" fill="#D18730" fill-opacity="0.9"/>
<path d="M14.9717 12.996C15.188 13.1596 15.3278 13.2388 15.4756 13.3311C15.5811 13.3839 15.6866 13.4393 15.8977 13.4525C15.9953 13.4657 15.7816 13.5026 15.924 13.5106C16.0718 13.5053 16.0955 13.4499 16.1456 13.4076C16.1272 13.4076 16.1061 13.4076 16.0876 13.4076C16.1456 13.4129 16.2538 13.3733 16.3303 13.3311C16.4121 13.2863 16.4833 13.2493 16.4305 13.3786C15.9372 13.8615 15.3674 13.7533 14.9875 13.2889L14.9585 13.1543L14.6578 12.9458C14.6446 12.9221 14.6657 12.9142 14.5654 12.8429C14.3438 12.7136 14.6868 12.9907 14.6446 13.0118L14.0563 12.616C13.9903 12.5579 14.1275 12.6397 14.1143 12.616C13.8769 12.3759 13.6342 12.3442 13.4548 12.1067L13.8268 12.3416C13.4179 12.0064 13.1303 11.732 12.8586 11.4787C13.6764 12.1489 14.2726 12.3363 14.9743 13.0039L14.9717 12.996Z" fill="#D18730" fill-opacity="0.9"/>
<path d="M13.344 16.5927C13.3809 16.123 13.0406 15.7061 12.571 15.6454L1.3513 14.231C0.850065 14.1676 0.396316 14.5371 0.359382 15.0411L0.274964 16.123C0.235393 16.627 0.625828 17.0624 1.13234 17.0756L12.4339 17.4055C12.9061 17.4187 13.3044 17.0598 13.3414 16.5901L13.344 16.5927Z" fill="#D18730" fill-opacity="0.9"/>
<path d="M4.98921 16.9358C4.76497 16.941 4.38509 16.912 4.4484 16.8724L4.40355 16.846C4.59349 16.8566 5.38492 16.8803 4.98657 16.9358H4.98921Z" fill="#D18730" fill-opacity="0.9"/>
<path d="M5.03669 17.1205C4.84411 17.0994 4.99184 17.0941 5.02614 17.0809L5.28995 17.0914C5.36909 17.1126 5.14749 17.1178 5.03669 17.1205Z" fill="#D18730" fill-opacity="0.9"/>
<path d="M4.9127 17.5031L4.99184 17.5163C4.9127 17.5031 4.79927 17.4952 4.7254 17.4952C4.72012 17.4741 4.86522 17.4582 5.01822 17.4714C4.98393 17.4846 4.83356 17.482 4.91534 17.5057L4.9127 17.5031Z" fill="#D18730" fill-opacity="0.9"/>
<path d="M1.08222 16.9674C1.01626 17.0281 1.26424 17.1284 1.58345 17.197L1.45946 17.2946C1.33283 17.2603 1.17982 17.2735 0.931845 17.2313C0.699694 17.1838 0.464905 17.0439 0.325087 16.8645C0.187907 16.7431 0.588895 17.2102 0.264412 16.8777C0.243307 16.8276 0.288154 16.8408 0.243307 16.7563C0.12987 16.5901 0.100851 16.5426 0.0507275 16.4397C-0.00467213 16.342 -0.0178625 16.1124 0.0269848 15.7799L0.0955748 15.5425C0.106127 15.3894 0.116679 15.2337 0.127232 15.0754C0.132508 14.9065 0.182631 14.6875 0.285516 14.5212C0.48601 14.1729 0.886998 13.946 1.2959 13.9618C1.96069 14.0225 2.54635 14.0937 3.13991 14.1914C3.35624 14.165 3.95772 14.26 4.32441 14.2732L4.32969 14.3048C4.54601 14.2785 4.8916 14.3893 5.15277 14.413L5.38228 14.4711C5.46406 14.5318 4.71221 14.4104 4.9127 14.5107C5.40602 14.6162 5.76216 14.5476 6.18162 14.6532C6.59579 14.7191 6.55095 14.6769 6.80948 14.6928C6.87807 14.6716 6.73034 14.6532 6.76199 14.6215C7.69323 14.7191 7.71962 14.8854 8.54006 14.9751C8.57435 14.954 9.23387 14.9725 8.62975 14.859L8.33693 14.8537L8.14435 14.7957C8.36858 14.8221 8.78012 14.8775 8.73791 14.8352C9.01755 14.9857 10.2891 14.9197 9.64541 15.0173C9.26553 14.9408 9.15473 14.9329 8.90147 14.9487C9.76412 15.0675 10.5186 15.21 11.2283 15.2997L11.4446 15.2733C11.4525 15.3261 11.7954 15.4026 12.1331 15.458C12.2808 15.4659 12.4682 15.4923 12.4259 15.4633C12.4945 15.4422 11.1887 15.2891 11.8113 15.2759C12.0012 15.3076 12.1991 15.3393 12.4048 15.3709C12.5763 15.3973 12.8586 15.4395 13.0459 15.5847C13.2411 15.7166 13.3704 15.904 13.4363 16.0887C13.468 16.181 13.4891 16.2734 13.4917 16.3605C13.497 16.4027 13.4917 16.4449 13.4917 16.4845C13.4917 16.5056 13.4864 16.5241 13.4838 16.5426L13.4785 16.5716V16.5848L13.4759 16.5927V16.598C13.4179 16.5927 13.6025 16.6085 13.3466 16.5874C13.6025 16.6059 13.4179 16.5927 13.4759 16.598V16.5215C13.4759 16.4951 13.4733 16.4713 13.4706 16.4449C13.468 16.3948 13.4574 16.3473 13.4469 16.2998C13.4231 16.2074 13.3888 16.1204 13.344 16.0412C13.249 15.8855 13.1039 15.7483 12.9008 15.6797C12.7372 15.5979 12.5526 15.5926 12.389 15.5768C12.2149 15.5583 12.0461 15.5425 11.8799 15.524C11.5316 15.4844 11.1913 15.4448 10.851 15.4052C10.1651 15.3234 9.48449 15.2469 8.83816 15.2073C8.79595 15.1651 8.45564 15.1097 8.5638 15.0859C8.44772 15.0464 8.11533 15.0332 8.03355 14.9698C7.03372 14.8959 5.87032 14.7191 4.97074 14.6004C5.2108 14.7218 4.41938 14.5898 4.16349 14.5951C3.93134 14.5265 3.52507 14.4922 3.22433 14.4553C3.19004 14.4658 3.00273 14.45 3.04494 14.479C3.26654 14.4948 3.34568 14.5265 3.56992 14.5634C3.46967 14.6189 3.08452 14.5001 2.74684 14.4526L2.92887 14.4394C2.36432 14.3735 1.72063 14.1544 1.19301 14.1861C1.34602 14.1993 1.48056 14.2521 1.62302 14.289C1.46474 14.2811 1.29854 14.2389 1.14025 14.26C0.97933 14.2758 0.818408 14.3418 0.69178 14.4447C0.420058 14.6505 0.364659 14.9857 0.401592 15.2152C0.414782 14.9989 0.456991 14.7403 0.61 14.5766C0.749818 14.413 0.913378 14.3603 0.921293 14.4025C0.921293 14.4262 0.826322 14.4843 0.733989 14.574C0.641657 14.6637 0.565152 14.7957 0.528219 14.888C0.420058 15.3182 0.422696 15.8301 0.414782 16.2127C0.454353 16.5769 0.720799 16.8592 1.08749 16.9595L1.08222 16.9674Z" fill="#D18730" fill-opacity="0.9"/>
<path d="M0.533495 16.152C0.594171 15.3393 0.435887 15.7087 0.520305 14.9593C0.546686 15.0437 0.639018 14.7455 0.807855 14.6294C0.934483 14.4711 1.17719 14.4262 1.35394 14.4579C1.43044 14.4711 1.45946 14.4922 1.43572 14.5054C1.41197 14.5186 1.31173 14.516 1.22467 14.5186C0.96614 14.4658 0.665399 14.7165 0.644295 15.0068C0.62319 15.3709 0.607362 15.8195 0.538772 16.152H0.533495Z" fill="#D18730" fill-opacity="0.9"/>
<path d="M0.507115 16.7906C0.369935 16.6349 0.377849 16.5531 0.375211 16.4924C0.380487 16.4265 0.364659 16.3737 0.34883 16.189C0.420058 16.3341 0.333002 16.408 0.528219 16.6983C0.478096 16.6534 0.435887 16.6006 0.396315 16.5426C0.420058 16.627 0.456991 16.7115 0.507115 16.7906Z" fill="#D18730" fill-opacity="0.9"/>
<path d="M1.45155 14.3919C1.71272 14.4183 2.3142 14.5212 2.32475 14.5846C2.36168 14.5951 2.29309 14.6162 2.44082 14.6241C2.21395 14.5766 1.5386 14.4843 1.45155 14.3919Z" fill="#D18730" fill-opacity="0.9"/>
<path d="M0.388401 14.6294C0.462267 14.4843 0.570429 14.3418 0.794665 14.223C0.649571 14.3075 0.512391 14.4553 0.388401 14.6294Z" fill="#D18730" fill-opacity="0.9"/>
<path d="M1.80505 14.3233C1.7602 14.2705 2.02665 14.3391 2.10315 14.3497L2.25616 14.3893C2.10843 14.3814 1.92112 14.3655 1.80505 14.326V14.3233Z" fill="#D18730" fill-opacity="0.9"/>
<path d="M4.03158 14.7403C4.40883 14.8062 3.6306 14.7482 4.07907 14.8115L3.8179 14.7851L3.73084 14.7033L4.02895 14.7403H4.03158Z" fill="#D18730" fill-opacity="0.9"/>
<path d="M4.60405 14.8748C4.71485 14.8748 4.82565 14.8801 5.01559 14.9197L4.90743 14.9329C4.83356 14.9329 4.75442 14.8933 4.60405 14.8748Z" fill="#D18730" fill-opacity="0.9"/>
<path d="M4.12919 14.6558C4.31386 14.6637 4.2822 14.6954 4.39564 14.7244C4.32441 14.735 3.94189 14.64 4.12919 14.6558Z" fill="#D18730" fill-opacity="0.9"/>
<path d="M6.00223 14.4605C5.82548 14.4948 5.48253 14.4183 5.15013 14.3946C5.48253 14.4183 5.62762 14.4051 6.00223 14.4605Z" fill="#D18730" fill-opacity="0.9"/>
<path d="M7.72489 16.9674C7.88054 16.9912 8.0652 16.9806 8.17336 16.9674L8.09158 16.9463L7.72489 16.9674Z" fill="#D18730" fill-opacity="0.9"/>
<path d="M5.45878 16.8724C5.28731 16.9331 5.58014 16.912 5.89407 16.9701C6.31088 16.9964 6.7488 16.9542 7.16562 16.9701L7.41887 16.941C6.92292 16.9041 6.05235 16.8566 5.45878 16.8751V16.8724Z" fill="#D18730" fill-opacity="0.9"/>
<path d="M5.13166 17.1944C5.44032 17.2313 5.8413 17.1944 6.06818 17.2023C5.67774 17.1864 5.20025 17.1653 4.93381 17.1548C4.89951 17.168 5.05252 17.1838 5.13166 17.1944Z" fill="#D18730" fill-opacity="0.9"/>
<path d="M11.7427 17.0466C11.2177 17.0334 10.487 16.9595 9.90658 17.0281C10.173 17.0492 10.1783 17.0703 10.5978 17.0967C10.2812 17.1759 9.95407 17.0651 9.57946 17.0571C9.88548 17.0835 9.48185 17.1099 9.22068 17.1099C8.72472 17.073 7.93594 17.0598 7.26059 17.0439C6.96776 17.0677 6.01278 16.9885 6.14996 17.0783C5.73842 17.073 5.68302 17.007 5.377 16.978C4.46159 17.0519 3.74667 16.7458 2.76267 16.8381C2.82335 16.788 2.33794 16.7827 2.148 16.7721C1.93959 16.7642 1.59136 16.7537 1.32228 16.7537C1.26424 16.7537 1.20357 16.7563 1.14025 16.759C1.11387 16.759 1.08485 16.7616 1.0532 16.7642C1.00571 16.7695 0.987244 16.7774 1.0189 16.8144C1.09277 16.8698 1.32492 16.8566 1.55443 16.854C1.78658 16.8513 2.0372 16.8487 2.25352 16.8856C2.99746 17.0096 1.47265 16.9014 1.45946 16.9885C1.56762 16.9753 1.62566 17.0545 1.95806 17.036C1.25369 17.0545 2.24561 17.1389 1.88419 17.1812C2.6888 17.2551 2.6123 17.2551 3.01856 17.3764C3.50397 17.3738 3.36943 17.2946 3.50925 17.2551C4.02367 17.226 4.4273 17.3369 4.87313 17.3289C4.53282 17.453 5.61443 17.453 6.14205 17.4662C6.82267 17.4925 6.3742 17.3553 7.09175 17.387C7.44789 17.4609 6.36101 17.4503 6.83058 17.5321L7.16298 17.5137C7.37666 17.4688 7.5455 17.4055 7.79876 17.3764C7.94913 17.3791 8.176 17.3844 8.18128 17.4055C7.88581 17.4187 7.97551 17.4714 8.28416 17.5084C8.42926 17.4925 8.46619 17.4873 8.53478 17.4688C7.9333 17.3078 9.17319 17.4794 9.6032 17.4081C10.851 17.3263 10.2495 17.5955 11.4762 17.5691C11.2916 17.5005 11.4921 17.4899 11.7928 17.4925C12.0909 17.482 12.484 17.54 12.7082 17.453C13.0591 17.3395 13.1804 17.2471 13.3677 17.0413C13.4258 16.9437 13.4944 16.6428 13.4601 16.5953C13.3704 16.693 13.2437 16.9463 12.9615 17.0862C12.8243 17.1548 12.6555 17.1864 12.4945 17.1574C12.2597 17.1152 12.0276 17.073 11.8007 17.0334C11.7717 17.0334 11.748 17.0387 11.7506 17.0413L11.7427 17.0466Z" fill="#D18730" fill-opacity="0.9"/>
</svg>
