<svg width="298" height="13" viewBox="0 0 298 13" fill="none" xmlns="http://www.w3.org/2000/svg">
<path opacity="0.35" fill-rule="evenodd" clip-rule="evenodd" d="M269.835 1.56481C269.835 0.765692 270.483 0.117878 271.282 0.117878H293.828C294.627 0.117878 295.274 0.76569 295.274 1.56481V10.4827C295.274 11.2819 294.627 11.9297 293.828 11.9297H271.282C270.483 11.9297 269.835 11.2819 269.835 10.4828V1.56481ZM270.744 2.11155C270.744 1.51222 271.23 1.02636 271.829 1.02636H293.281C293.88 1.02636 294.366 1.51222 294.366 2.11156V9.93576C294.366 10.5351 293.88 11.021 293.281 11.021H271.829C271.23 11.021 270.744 10.5351 270.744 9.93576V2.11155ZM298 6.02375C298 7.01541 297.284 7.91048 296.183 8.29525V3.75225C297.284 4.13701 298 5.03208 298 6.02375Z" fill="black"/>
<path fill-rule="evenodd" clip-rule="evenodd" d="M261.54 5.3569C259.692 3.60013 257.24 2.62045 254.69 2.62034C252.141 2.62033 249.688 3.60002 247.841 5.3569C247.701 5.49274 247.479 5.49102 247.342 5.35306L246.012 4.01067C245.942 3.94075 245.904 3.84608 245.904 3.74761C245.905 3.64914 245.945 3.55499 246.015 3.48599C250.865 -1.162 258.515 -1.162 263.365 3.48599C263.435 3.55504 263.475 3.64922 263.476 3.74769C263.476 3.84616 263.438 3.9408 263.368 4.01067L262.038 5.35306C261.901 5.49081 261.679 5.49253 261.54 5.3569ZM258.48 8.44852C257.442 7.50822 256.091 6.98753 254.69 6.98762C253.29 6.9882 251.941 7.50884 250.903 8.44852C250.763 8.58197 250.541 8.57908 250.405 8.442L249.076 7.09961C249.006 7.0293 248.967 6.93379 248.968 6.8345C248.969 6.73521 249.01 6.64045 249.081 6.57148C252.243 3.63005 257.14 3.63005 260.302 6.57148C260.373 6.64045 260.414 6.73516 260.415 6.83442C260.416 6.93368 260.377 7.0292 260.307 7.09961L258.979 8.442C258.842 8.57908 258.621 8.58197 258.48 8.44852ZM257.244 10.1913C257.315 10.1216 257.354 10.0256 257.352 9.92609C257.35 9.82655 257.307 9.73227 257.233 9.66549C255.765 8.42411 253.616 8.42411 252.148 9.66549C252.074 9.73221 252.031 9.82647 252.029 9.92601C252.027 10.0255 252.066 10.1215 252.137 10.1913L254.436 12.5106C254.503 12.5788 254.595 12.6171 254.691 12.6171C254.786 12.6171 254.878 12.5788 254.946 12.5106L257.244 10.1913ZM272.376 1.93495C271.976 1.93495 271.653 2.25886 271.653 2.65841V9.38889C271.653 9.78844 271.976 10.1123 272.376 10.1123H292.734C293.133 10.1123 293.457 9.78844 293.457 9.38889V2.65841C293.457 2.25886 293.133 1.93495 292.734 1.93495H272.376ZM237.128 1.02638H236.049C235.453 1.02638 234.97 1.50945 234.97 2.10534V11.4564C234.97 12.0522 235.453 12.5353 236.049 12.5353H237.128C237.724 12.5353 238.207 12.0522 238.207 11.4564V2.10534C238.207 1.50945 237.724 1.02638 237.128 1.02638ZM231.014 3.54393H232.093C232.689 3.54393 233.172 4.027 233.172 4.6229V11.4563C233.172 12.0522 232.689 12.5353 232.093 12.5353H231.014C230.419 12.5353 229.936 12.0522 229.936 11.4563V4.6229C229.936 4.027 230.419 3.54393 231.014 3.54393ZM227.059 6.06167H225.98C225.384 6.06167 224.901 6.54473 224.901 7.14063V11.4565C224.901 12.0524 225.384 12.5354 225.98 12.5354H227.059C227.654 12.5354 228.138 12.0524 228.138 11.4565V7.14063C228.138 6.54473 227.654 6.06167 227.059 6.06167ZM222.024 8.21943H220.945C220.349 8.21943 219.866 8.7025 219.866 9.29839V11.4563C219.866 12.0522 220.349 12.5353 220.945 12.5353H222.024C222.62 12.5353 223.103 12.0522 223.103 11.4563V9.29839C223.103 8.7025 222.62 8.21943 222.024 8.21943ZM8.26711 6.3278C8.26711 9.93794 6.64785 12.0699 3.92186 12.0699C1.96093 12.0699 0.467949 10.911 0.148555 9.15054H2.05749C2.30261 9.96023 3.01567 10.4654 3.93672 10.4654C5.50398 10.4654 6.43245 9.00198 6.43245 6.55064H6.30618C5.80109 7.56832 4.78348 8.15515 3.52819 8.15515C1.48555 8.15515 0 6.65464 0 4.58958C0 2.3908 1.64896 0.823435 3.98128 0.823435C5.54854 0.823435 6.78898 1.56626 7.50947 2.9405C8.00714 3.82446 8.26711 4.96842 8.26711 6.3278ZM1.87921 4.53002C1.87921 5.75569 2.75569 6.63223 3.9887 6.63223C5.21428 6.63223 6.11304 5.75569 6.11304 4.55974C6.11304 3.34892 5.192 2.42039 3.99612 2.42039C2.80025 2.42039 1.87921 3.33407 1.87921 4.53002ZM11.3277 5.1019C12.0333 5.1019 12.5161 4.6042 12.5161 3.93565C12.5161 3.25968 12.0333 2.76199 11.3277 2.76199C10.6295 2.76199 10.1392 3.25968 10.1392 3.93565C10.1392 4.6042 10.6295 5.1019 11.3277 5.1019ZM12.5161 9.49967C12.5161 10.1682 12.0333 10.6733 11.3277 10.6733C10.6295 10.6733 10.1392 10.1682 10.1392 9.49967C10.1392 8.8237 10.6295 8.326 11.3277 8.326C12.0333 8.326 12.5161 8.8237 12.5161 9.49967ZM21.4519 11.8098V9.81155H22.9003V8.19218H21.4519V1.09074H18.7482C16.8541 3.9432 15.3463 6.32768 14.3807 8.10304V9.81155H19.6172V11.8098H21.4519ZM16.156 8.23678H19.6471V2.65071H19.5431C18.5181 4.16608 17.4039 5.92658 16.156 8.12536V8.23678ZM29.0732 11.8098V1.09074H27.1642L24.364 3.05181V4.89402L27.0305 3.02209H27.1568V11.8098H29.0732Z" fill="black"/>
</svg>
