<svg width="58" height="50" viewBox="0 0 58 50" fill="none" xmlns="http://www.w3.org/2000/svg">
<path d="M20.722 6.20128C20.802 5.98128 20.812 5.75128 20.772 5.74128C20.742 5.85128 20.692 6.02128 20.642 6.14128L20.692 6.03128C20.762 5.92128 20.712 6.15128 20.732 6.20128H20.722Z" fill="#65413D"/>
<path d="M34.852 4.96128C34.762 4.78128 34.672 4.62128 34.532 4.40128C34.812 4.85128 34.922 5.39128 35.102 5.62128C35.032 5.33128 34.942 5.14128 34.852 4.96128Z" fill="#65413D"/>
<path d="M20.642 7.92128C20.662 8.44128 20.742 8.52128 20.822 8.60128C20.912 8.68128 20.952 8.78128 21.072 9.29128C21.072 9.56128 20.962 9.32128 20.852 9.08128C20.762 8.84128 20.672 8.61128 20.662 8.99128C20.702 9.16128 20.782 9.31128 20.842 9.47128C21.022 9.76128 21.262 9.94128 21.472 10.2513C21.562 10.4513 21.732 10.7313 21.692 10.7613C21.452 10.4013 21.412 10.5613 21.582 11.0113C21.742 11.1713 21.782 11.2113 21.872 11.2713C21.752 10.8113 21.882 11.0113 22.112 11.3613C22.232 11.5313 22.392 11.7413 22.552 11.9213C22.722 12.0913 22.902 12.2413 23.042 12.3213C23.802 12.8113 23.962 12.9713 24.102 13.1913C24.252 13.3813 24.392 13.6513 25.272 13.9213C25.052 13.7113 25.352 13.7713 25.772 13.8913C26.192 14.0013 26.762 14.1013 27.052 14.0813C27.542 14.1313 27.712 14.2013 28.072 14.2813C28.212 14.2413 28.592 14.2013 28.642 14.1413C28.572 14.0613 28.452 13.9913 28.302 13.9313C28.402 13.9313 28.512 13.9313 28.612 13.9113C30.702 13.6713 32.462 12.5413 33.522 10.9913C33.252 11.4213 32.922 11.8213 32.542 12.1713C31.822 12.8413 30.962 13.3513 30.082 13.7213C29.832 13.8813 29.602 13.9613 29.382 14.0313C29.152 14.0913 28.922 14.1213 28.652 14.1813C28.842 14.1813 29.062 14.1813 29.312 14.1813C29.552 14.1613 29.822 14.1113 30.102 14.0713C30.642 13.9313 31.242 13.7313 31.772 13.4213C32.122 13.1013 31.872 13.2013 31.542 13.3713C31.222 13.5413 30.782 13.7113 30.822 13.6613C30.742 13.6413 30.992 13.5313 31.182 13.4113C31.642 13.2113 32.102 12.9713 32.182 13.0413L32.372 12.7613C33.212 12.1213 34.042 11.2713 34.602 10.0713C34.522 10.4513 34.482 10.6313 34.112 11.1013C34.012 11.6113 34.112 11.4013 34.302 11.0113C34.492 10.6313 34.682 10.0613 34.872 9.89128C34.782 9.94128 35.002 9.33128 35.072 8.99128L34.922 9.27128C34.912 9.42128 34.892 9.57128 34.852 9.72128C34.452 10.5813 34.672 9.58128 34.632 9.53128C34.722 9.24128 34.782 9.01128 34.862 8.82128C34.922 8.63128 34.982 8.46128 35.052 8.30128C35.162 7.96128 35.282 7.58128 35.202 6.85128C35.122 6.82128 35.142 7.05128 35.072 6.95128C35.012 6.56128 34.932 6.65128 34.842 6.03128C34.782 5.37128 34.392 4.96128 34.102 4.28128C34.092 3.92128 34.592 4.96128 34.602 4.80128C34.582 4.68128 34.532 4.57128 34.492 4.45128C34.302 4.09128 34.102 3.55128 33.812 3.36128L33.852 3.31128C33.472 2.88128 32.772 2.24128 32.452 2.13128C31.762 1.54128 30.882 1.12128 29.952 0.911283C29.022 0.691283 28.052 0.671283 27.122 0.781283C27.002 0.761283 26.872 0.751283 26.752 0.731283C26.202 0.791283 26.012 0.901283 25.892 0.971283C25.772 1.05128 25.732 1.11128 25.512 1.22128C25.392 1.24128 25.422 1.17128 25.352 1.17128C24.842 1.41128 25.552 1.17128 25.362 1.29128C24.822 1.47128 24.242 1.88128 23.882 1.99128C23.872 2.08128 23.862 2.17128 23.852 2.27128C24.082 2.19128 24.292 2.16128 24.452 2.16128C24.212 2.30128 23.982 2.45128 23.762 2.61128C23.592 2.66128 23.362 2.76128 23.542 2.56128C23.052 2.89128 22.842 3.06128 22.682 3.17128C22.522 3.29128 22.382 3.32128 22.102 3.50128C21.682 4.11128 21.962 4.04128 21.922 4.26128C21.602 4.93128 21.182 5.40128 21.062 6.06128C20.992 5.78128 20.852 6.03128 20.752 6.47128C20.652 6.91128 20.622 7.53128 20.652 7.93128L20.642 7.92128ZM33.982 4.43128C34.652 5.58128 34.902 7.31128 34.702 8.75128C34.562 8.85128 34.512 9.33128 34.392 9.48128C34.382 9.39128 34.302 9.50128 34.232 9.62128C34.562 8.74128 34.692 7.78128 34.582 6.79128C34.452 5.64128 33.992 4.60128 33.322 3.74128C33.632 4.07128 34.002 4.78128 33.992 4.43128H33.982ZM33.032 3.39128C32.782 3.11128 32.502 2.86128 32.212 2.63128C32.222 2.63128 32.242 2.64128 32.242 2.64128C32.502 2.84128 32.832 3.12128 33.032 3.39128ZM31.402 2.09128C30.962 1.84128 30.492 1.64128 29.992 1.49128C29.892 1.43128 29.792 1.37128 29.682 1.33128C30.252 1.36128 30.862 1.72128 31.392 2.09128H31.402Z" fill="#65413D"/>
<path d="M57.712 43.3813L57.412 40.8113C56.772 35.3113 55.272 30.6813 52.912 26.9113C52.372 26.0513 51.792 25.2513 51.172 24.5113C52.352 25.9013 53.372 27.4713 54.202 29.1413C55.682 32.1013 56.602 35.3213 57.212 38.4613C57.672 40.3013 57.742 41.5913 57.992 43.3513C57.922 42.1313 57.832 40.5213 57.602 38.7213C57.362 36.9313 56.962 34.9813 56.392 33.1313C55.822 31.7513 56.072 32.5613 56.392 33.7013C56.712 34.8313 57.042 36.3013 56.972 36.1513C56.972 36.3713 56.772 35.4813 56.572 34.8013C56.182 33.2013 55.652 31.6013 55.722 31.4913C55.572 31.1813 55.402 30.8913 55.242 30.5813C54.572 28.9913 53.762 27.3713 52.702 25.8013C51.652 24.2213 50.342 22.6913 48.702 21.3313C49.692 22.0413 50.142 22.3913 51.352 23.8413C52.472 24.9113 51.982 24.3213 51.062 23.3413C50.142 22.3613 48.662 21.1613 48.132 20.6413C48.292 20.8213 46.632 19.6213 45.632 19.1313C45.912 19.3013 46.172 19.4913 46.442 19.6813C46.862 19.9113 47.272 20.1513 47.672 20.4113C50.022 22.2913 47.382 20.4213 47.212 20.4213C45.532 19.3313 44.602 18.8213 43.592 18.3013C42.572 17.8113 41.462 17.2813 39.212 16.8413C39.072 16.8913 39.792 17.0313 39.452 17.0313C38.832 16.9213 38.572 16.9113 38.222 16.8713C37.852 16.8313 37.422 16.7813 36.422 16.6613C34.352 16.3713 32.682 16.6213 30.272 16.7513C29.762 16.7313 30.412 16.6213 31.152 16.5513C31.882 16.4713 32.702 16.4313 32.482 16.3913C32.102 16.3913 31.722 16.3913 31.342 16.3913C30.082 16.4813 28.332 16.5813 27.342 16.8813L27.292 16.8213C26.422 17.0113 25.262 17.2913 24.212 17.6213C23.162 17.9513 22.232 18.3113 21.782 18.5613C19.082 19.5813 16.452 21.1913 14.202 23.2513C11.942 25.3113 10.062 27.8413 8.73201 30.5513C8.52201 30.8813 8.33201 31.2213 8.13201 31.5713C7.41201 33.1813 7.26201 33.8413 7.17201 34.2613C7.08201 34.6813 7.08201 34.8813 6.90201 35.6613C6.79201 36.0213 6.77201 35.8713 6.69201 36.0613C6.33201 37.8213 6.89201 35.4913 6.78201 36.1913C6.34201 37.9713 6.16201 40.2913 6.03201 41.4513L6.23201 42.0413C6.31201 41.2413 6.45201 40.5413 6.57201 40.1013C6.49201 41.0413 6.44201 41.9913 6.44201 42.9713C6.39201 43.5313 6.34201 44.3413 6.27201 43.4613C6.27201 45.4013 6.37201 46.2713 6.41201 46.9113C6.44201 47.2313 6.46201 47.4913 6.48201 47.7913C6.48201 47.9413 6.50201 48.1013 6.50201 48.2913C6.50201 48.3813 6.50201 48.4813 6.51201 48.5913C6.51201 48.6813 6.54201 48.9313 6.56201 49.1213C6.60201 49.3613 6.64201 49.5713 6.68201 49.7713C6.68201 49.7913 6.68201 49.8313 6.70201 49.8313H6.77201L6.91201 49.8013C7.00201 49.7913 7.09201 49.7713 7.18201 49.7613C7.35201 49.7413 7.50201 49.7113 7.64201 49.6913C7.75201 49.6713 7.86201 49.6513 7.96201 49.6413C8.23201 49.5913 8.38201 49.5413 8.48201 49.5013C8.68201 49.4213 8.68201 49.3613 9.00201 49.2813C11.432 48.9013 13.382 48.8913 15.482 48.5913C13.912 49.0613 19.042 48.3913 21.542 48.1013C24.772 47.7413 22.602 47.7213 26.012 47.3513C27.722 47.2913 22.582 47.9313 24.832 47.8213L26.392 47.5813C27.382 47.3513 28.162 47.1213 29.352 46.9013C30.062 46.8113 31.132 46.6913 31.172 46.7313C29.782 46.9413 30.222 47.0013 31.692 46.8813C32.372 46.7613 32.542 46.7213 32.862 46.6413C29.952 46.6713 35.882 46.2713 37.892 45.8613C43.772 44.9213 41.032 45.8613 46.822 45.0413C45.012 44.9813 50.642 44.4513 52.532 44.1313C54.142 43.9513 54.742 43.9513 55.872 43.9013C56.312 43.8213 57.552 43.6613 57.742 43.5913C57.532 43.5313 57.162 43.5013 56.682 43.4713L57.712 43.3513V43.3813ZM30.592 25.1313C33.132 24.8313 35.242 25.0913 36.902 25.9113C37.032 25.9813 37.162 26.0513 37.292 26.1313C37.082 26.0213 36.862 25.9113 36.652 25.8313C36.242 25.6713 35.952 25.6113 36.172 25.7913C35.262 25.4413 34.142 25.2113 32.982 25.1713C31.822 25.1313 30.622 25.2513 29.562 25.5013C29.352 25.4313 28.652 25.6313 28.392 25.6613C28.502 25.5913 28.332 25.6013 28.132 25.6313C28.902 25.4113 29.712 25.2413 30.592 25.1413V25.1313ZM40.862 30.2513C41.012 30.5713 41.152 30.9013 41.282 31.2513C41.322 31.4313 41.372 31.6013 41.402 31.7813C41.042 31.0413 40.742 30.0713 40.302 29.2013C40.502 29.5313 40.692 29.8813 40.862 30.2513ZM39.342 27.8513C39.342 27.8513 39.342 27.8513 39.332 27.8513C38.982 27.4313 38.462 26.9813 38.072 26.6313C38.532 26.9813 38.952 27.3913 39.352 27.8513H39.342ZM26.342 26.2813C25.482 26.7213 24.652 27.2413 23.932 27.9213C22.812 28.9413 21.982 30.2713 21.492 31.6513C21.302 32.5013 21.112 33.0413 20.932 33.8313C21.332 32.7913 22.002 31.1013 23.002 29.7713C23.302 29.2013 23.052 29.4613 22.732 29.8713C22.422 30.2813 22.102 30.8713 22.112 30.7913C22.022 30.8513 22.212 30.4913 22.362 30.2113C22.762 29.5913 23.292 29.0613 23.392 29.1113C23.462 28.9813 23.522 28.8413 23.602 28.7113C24.632 27.5913 26.082 26.7713 27.832 26.2213C27.362 26.4813 27.152 26.5713 26.392 26.8513C25.902 27.3213 26.172 27.1313 26.662 26.8513C27.152 26.5713 27.902 26.2513 28.242 26.2813C28.122 26.2313 28.962 26.0013 29.432 25.9213C29.292 25.9213 29.152 25.9213 29.002 25.9413C28.802 26.0013 28.612 26.0813 28.422 26.1513C27.162 26.4513 28.452 25.9113 28.512 25.8513C29.372 25.6213 29.852 25.6313 30.352 25.6313C30.852 25.6413 31.382 25.6513 32.372 25.6113C32.432 25.5313 32.112 25.5413 32.252 25.4713C32.802 25.4313 32.702 25.3413 33.592 25.4313C34.482 25.6313 35.252 25.5213 36.222 25.9913C36.392 26.1513 36.122 26.0613 35.812 25.9713C35.502 25.8813 35.162 25.8113 35.242 25.8913C35.392 25.9513 35.542 26.0213 35.682 26.0813C36.202 26.2313 36.792 26.6613 37.192 26.8013L37.172 26.8613C37.852 27.1713 38.702 28.0713 39.042 28.3613C40.492 30.3313 41.452 33.0013 41.972 35.6513V36.1813C42.182 37.8013 42.252 37.1713 42.372 37.6413C42.282 37.6413 42.252 37.5813 42.192 37.5613C42.082 37.6013 42.092 37.6113 42.162 37.6213C42.222 37.6313 42.332 37.6413 42.272 37.6713C41.952 37.7113 41.582 37.7613 41.242 37.8113C40.812 37.8613 40.412 37.9013 40.142 37.8813L39.902 38.1313C40.252 38.1513 40.572 38.1913 40.792 38.2513L39.512 38.4013C39.252 38.3713 38.862 38.3613 39.262 38.2613C37.482 38.3613 37.652 38.3413 36.732 38.2113C35.672 38.3713 35.992 38.5013 35.702 38.6213C34.592 38.8413 33.672 38.7413 32.702 38.9013C33.412 38.5313 31.042 38.8713 29.892 39.0113C28.402 39.1713 29.422 39.3213 27.842 39.4813C27.042 39.4413 29.412 39.1113 28.362 39.0913L27.642 39.2313C27.192 39.3913 26.842 39.5813 26.292 39.7213C25.962 39.7613 25.472 39.8213 25.452 39.7813C26.092 39.6613 25.882 39.5813 25.192 39.5913C24.882 39.6713 24.802 39.6913 24.662 39.7513C26.022 39.9013 23.272 39.9313 22.352 40.2213C21.682 40.3613 21.252 40.4213 20.942 40.4413C20.682 40.4513 20.562 40.4213 20.482 40.3713C20.362 40.3713 20.482 40.1413 20.482 40.0013C20.492 39.9013 20.512 39.9013 20.502 39.6313C20.502 39.4113 20.502 39.1313 20.482 38.8013C20.202 39.6213 20.352 37.0313 20.382 36.1613C20.472 35.4213 20.592 35.1713 20.762 34.6813C20.762 34.4813 20.872 33.9213 20.852 33.8213C20.762 33.8813 20.652 34.0213 20.532 34.2113C20.562 34.0713 20.582 33.9113 20.622 33.7713C21.252 31.1513 22.392 29.1413 24.042 27.7213C24.702 27.1513 25.452 26.6813 26.282 26.2913L26.342 26.2813ZM50.712 23.9713C50.712 23.9713 50.802 24.0613 50.842 24.1113C50.802 24.0613 50.752 24.0213 50.712 23.9713ZM30.592 16.9213C32.752 16.7313 35.272 16.7113 37.802 17.0813C40.332 17.4413 42.862 18.2213 45.032 19.2813C45.372 19.5613 46.772 20.3213 47.212 20.7113C46.952 20.5813 47.292 20.8513 47.642 21.1513C46.362 20.2013 44.962 19.4113 43.442 18.7713C39.482 17.1113 34.892 16.5813 29.662 17.1913C29.062 17.2613 28.462 17.3513 27.882 17.4513C28.432 17.3513 29.062 17.2413 29.602 17.1713C30.552 17.0513 31.202 16.9713 30.592 16.9213ZM26.452 17.7313C25.032 18.0413 23.672 18.4413 22.372 18.9413C22.422 18.9213 22.462 18.9013 22.482 18.8813C23.682 18.4113 25.312 17.9213 26.452 17.7313ZM19.372 20.3113C18.372 20.8513 17.412 21.4513 16.492 22.1213C16.002 22.4813 15.532 22.8513 15.072 23.2413C14.772 23.4613 14.472 23.6913 14.192 23.9313C15.472 22.5713 17.422 21.3013 19.372 20.3113Z" fill="#65413D"/>
<path d="M32.402 38.5513H32.572C32.752 38.5713 32.422 38.6113 32.362 38.6513C32.702 38.6313 33.012 38.5513 32.992 38.5113C32.832 38.5313 32.572 38.5513 32.402 38.5513Z" fill="#65413D"/>
<path d="M33.982 25.8513C34.752 25.9813 35.042 25.9813 35.702 26.1413C35.052 25.9613 34.352 25.7713 33.982 25.8513Z" fill="#65413D"/>
<path d="M14.872 49.0513C15.232 49.0113 15.772 48.9513 16.142 48.9313L15.772 48.9513C15.382 48.9513 16.092 48.8713 16.252 48.8213C15.522 48.8913 14.842 49.0113 14.882 49.0513H14.872Z" fill="#65413D"/>
<path d="M31.302 16.3613C32.922 16.1913 34.622 16.3113 35.472 16.2313C33.622 16.1313 32.922 16.2313 31.302 16.3613Z" fill="#65413D"/>
<path d="M39.612 10.7213C39.262 10.3713 39.242 9.80128 39.582 9.42128L47.652 0.541283C48.012 0.141283 48.632 0.131283 49.012 0.511283L49.822 1.32128C50.202 1.70128 50.182 2.32128 49.792 2.68128L40.912 10.7513C40.542 11.0913 39.972 11.0713 39.612 10.7213Z" fill="#65413D"/>
<path d="M43.502 5.49128L43.592 5.40128C43.312 5.71128 43.012 6.03128 42.712 6.34128C43.412 5.70128 44.212 4.94128 44.562 4.27128C44.692 4.27128 45.332 3.64128 45.332 3.60128C45.462 3.43128 45.582 3.28128 45.682 3.14128C46.062 2.66128 46.492 2.18128 46.932 1.69128C47.152 1.45128 47.382 1.21128 47.612 0.961283C47.862 0.681283 48.012 0.531283 48.272 0.521283C48.402 0.511283 48.602 0.541283 48.752 0.691283C48.972 0.911283 49.212 1.16128 49.452 1.41128C49.592 1.56128 49.652 1.62128 49.702 1.73128C49.742 1.83128 49.752 1.94128 49.742 2.04128C49.722 2.14128 49.682 2.23128 49.642 2.29128C49.592 2.36128 49.542 2.40128 49.452 2.47128C49.362 2.55128 49.282 2.62128 49.192 2.69128C49.292 2.61128 49.3887 2.53128 49.482 2.45128C49.142 2.80128 48.822 3.12128 48.542 3.40128C48.602 3.36128 48.622 3.36128 48.772 3.26128L48.612 3.40128C48.492 3.56128 48.162 3.86128 48.022 4.02128C48.042 3.97128 47.912 4.08128 47.802 4.18128L47.852 4.15128C47.432 4.53128 46.962 4.96128 46.592 5.30128C46.542 5.35128 46.492 5.38128 46.472 5.39128L46.132 5.72128C46.132 5.72128 45.822 5.97128 45.982 5.80128C45.742 6.07128 45.462 6.29128 45.232 6.55128C44.332 7.37128 43.392 8.26128 42.492 9.14128H42.522C42.212 9.44128 41.962 9.74128 41.552 10.0913C41.282 10.3713 40.922 10.7613 40.812 10.9013C40.612 11.0313 40.442 11.0613 40.272 11.0813C40.102 11.0813 39.922 11.0713 39.712 10.9413C39.762 10.9913 39.652 10.9413 39.562 10.8713C39.472 10.8013 39.422 10.7613 39.482 10.8413C39.722 11.1013 39.772 11.0713 40.042 11.1913C40.382 11.2613 40.762 11.1913 41.042 10.9613C41.262 10.7713 41.482 10.5813 41.702 10.4013C42.142 10.0113 42.572 9.64128 42.992 9.27128C43.542 8.73128 44.172 8.19128 44.762 7.65128C45.362 7.08128 46.032 6.44128 46.602 5.91128C46.722 5.79128 46.842 5.72128 46.962 5.63128C47.472 5.16128 48.072 4.60128 48.662 4.06128C48.652 4.06128 48.642 4.08128 48.632 4.08128C48.932 3.82128 49.182 3.60128 49.472 3.35128C49.472 3.35128 49.512 3.30128 49.532 3.28128C49.552 3.28128 49.662 3.17128 49.832 3.02128C49.972 2.90128 50.302 2.58128 50.322 2.21128C50.382 1.84128 50.232 1.47128 50.042 1.27128C49.852 1.08128 49.742 0.991283 49.722 0.951283C49.692 0.921283 49.662 0.891283 49.632 0.861283C49.502 0.721283 49.352 0.561283 49.202 0.401283C49.042 0.221283 48.802 0.0712832 48.552 0.0212832C48.302 -0.0287168 48.032 0.0112832 47.802 0.121283C47.692 0.181283 47.582 0.251283 47.502 0.341283C47.422 0.421283 47.372 0.481283 47.312 0.551283C47.222 0.681283 47.142 0.801283 47.042 0.931283C46.942 1.01128 46.952 1.05128 46.842 1.16128C46.522 1.39128 46.392 1.59128 46.552 1.46128C46.342 1.70128 46.122 1.94128 45.932 2.15128C45.852 2.25128 45.762 2.35128 45.682 2.46128C45.612 2.55128 45.562 2.59128 45.512 2.62128C45.322 2.84128 45.372 2.77128 45.162 2.98128C45.092 3.02128 44.682 3.57128 44.622 3.63128L44.652 3.59128C44.412 3.85128 44.212 3.98128 43.982 4.24128C43.322 4.93128 42.642 5.72128 42.042 6.36128C42.062 6.39128 42.172 6.21128 42.202 6.23128C41.862 6.58128 41.452 7.01128 41.112 7.36128C41.042 7.42128 40.952 7.50128 40.922 7.53128C40.802 7.65128 40.862 7.61128 40.782 7.70128H40.752C40.652 7.84128 40.552 7.87128 40.452 8.00128C40.452 8.01128 40.412 8.06128 40.372 8.10128C40.352 8.08128 40.252 8.24128 40.232 8.21128C40.232 8.21128 40.192 8.26128 40.162 8.29128C40.122 8.35128 39.762 8.86128 39.712 8.94128L39.682 8.96128C39.622 9.03128 39.602 9.08128 39.652 9.04128L39.572 9.13128L39.492 9.21128C39.472 9.22128 39.452 9.23128 39.462 9.21128C39.382 9.31128 39.362 9.35128 39.312 9.41128C39.352 9.36128 39.392 9.32128 39.442 9.27128C39.482 9.24128 39.522 9.20128 39.562 9.17128C39.632 9.11128 39.712 9.04128 39.802 8.97128C39.752 9.04128 39.642 9.13128 39.592 9.20128C39.522 9.25128 39.322 9.43128 39.232 9.63128C39.212 9.67128 39.232 9.71128 39.192 9.81128C39.162 9.86128 39.172 9.92128 39.152 10.0113C39.152 9.91128 39.172 9.81128 39.202 9.71128C39.162 9.71128 39.122 9.95128 39.122 10.0313C39.122 10.0713 39.122 10.2713 39.172 10.3913C39.132 10.3413 39.182 10.4913 39.202 10.5713C39.232 10.6513 39.272 10.6913 39.262 10.6613C39.292 10.6713 39.142 10.3413 39.222 10.4413C39.222 10.4713 39.282 10.6313 39.332 10.7013C39.342 10.7013 39.312 10.6413 39.352 10.6813C39.402 10.7713 39.482 10.8313 39.502 10.8813C39.492 10.8713 39.462 10.8413 39.442 10.8213C39.482 10.8713 39.352 10.7613 39.252 10.6113C39.152 10.4713 39.102 10.3013 39.122 10.3813C39.122 10.3613 39.182 10.5413 39.292 10.6813C39.342 10.7513 39.402 10.8113 39.452 10.8513C39.472 10.8713 39.492 10.8813 39.502 10.8913C39.602 10.7913 39.642 10.7613 39.672 10.7313L39.512 10.8913V10.8813C39.512 10.8813 39.512 10.8813 39.532 10.8813V10.8613L39.452 10.8113C39.392 10.7213 39.392 10.6713 39.422 10.7013C39.472 10.7713 39.372 10.7013 39.302 10.5813C39.222 10.4713 39.172 10.3413 39.202 10.4213V10.3613C39.232 10.4713 39.242 10.4813 39.302 10.6513C39.312 10.6513 39.362 10.7213 39.412 10.7713V10.7913C39.472 10.8513 39.542 10.9213 39.532 10.8713C39.262 10.5613 39.802 10.9713 39.572 10.6713C39.642 10.8113 39.502 10.6613 39.432 10.5113C39.432 10.4913 39.412 10.4213 39.402 10.3113C39.382 10.2113 39.382 10.2513 39.372 10.2413C39.372 10.1813 39.372 10.0813 39.392 10.0913C39.372 10.0113 39.412 9.97128 39.422 9.88128C39.422 9.80128 39.412 9.88128 39.422 9.83128C39.452 9.71128 39.542 9.56128 39.602 9.49128C39.642 9.47128 39.732 9.41128 39.692 9.49128C39.582 9.62128 39.692 9.41128 39.592 9.56128C39.662 9.51128 39.512 9.70128 39.532 9.75128C39.562 9.70128 39.622 9.60128 39.682 9.53128H39.662C39.712 9.47128 39.832 9.34128 39.902 9.28128C39.902 9.30128 39.932 9.28128 39.892 9.33128L39.972 9.24128C39.972 9.24128 39.982 9.21128 39.962 9.24128C39.992 9.19128 40.032 9.15128 40.072 9.13128C40.092 9.13128 40.462 8.62128 40.452 8.64128C40.512 8.58128 40.542 8.57128 40.582 8.50128C40.582 8.50128 40.452 8.65128 40.332 8.81128C40.212 8.96128 40.102 9.10128 40.132 9.06128C40.192 9.02128 40.742 8.29128 40.802 8.27128C40.842 8.22128 40.892 8.16128 40.872 8.16128C40.952 8.08128 40.872 8.20128 40.932 8.16128C40.932 8.16128 40.932 8.16128 40.932 8.14128L40.992 8.10128C41.092 7.96128 41.272 7.80128 41.372 7.65128C41.352 7.70128 41.332 7.76128 41.262 7.85128H41.242C41.242 7.85128 41.172 7.95128 41.182 7.95128C41.262 7.88128 41.322 7.81128 41.392 7.71128L41.442 7.67128C41.442 7.67128 41.472 7.65128 41.462 7.67128C41.532 7.65128 41.732 7.35128 41.872 7.22128C41.902 7.17128 41.872 7.22128 41.912 7.15128C42.072 7.00128 42.182 6.89128 42.312 6.77128C42.342 6.71128 42.342 6.70128 42.272 6.75128L42.382 6.64128C42.322 6.78128 42.612 6.45128 42.542 6.60128C42.582 6.57128 42.642 6.50128 42.702 6.43128C42.702 6.42128 42.702 6.39128 42.772 6.31128C42.892 6.21128 42.852 6.24128 42.952 6.14128C42.982 6.13128 42.952 6.17128 42.972 6.17128C43.092 6.01128 43.112 6.06128 43.232 5.92128C43.312 5.83128 43.462 5.66128 43.452 5.64128C43.562 5.52128 43.572 5.54128 43.582 5.56128L43.502 5.49128Z" fill="#65413D"/>
<path d="M43.202 13.8213C43.132 13.3213 43.462 12.8613 43.952 12.7613L55.722 10.4413C56.252 10.3413 56.752 10.6913 56.832 11.2213L57.002 12.3613C57.082 12.8913 56.702 13.3813 56.162 13.4313L44.222 14.6113C43.722 14.6613 43.272 14.3113 43.202 13.8113V13.8213Z" fill="#65413D"/>
<path d="M43.902 14.2013C44.112 14.3013 44.222 14.2813 44.312 14.3213C44.392 14.3513 44.402 14.3813 44.552 14.3913L44.172 14.4513C43.952 14.4513 43.702 14.3213 43.602 14.1513C43.502 13.9913 43.502 13.8613 43.552 13.9113C43.572 13.9413 43.732 14.1313 43.912 14.2013H43.902Z" fill="#65413D"/>
<path d="M43.322 13.8513C43.332 13.9113 43.332 13.9313 43.352 13.9913C43.302 13.9413 43.272 13.8813 43.232 13.8213L43.322 13.8613V13.8513Z" fill="#65413D"/>
<path d="M45.132 14.3013L45.502 14.2613C45.592 14.2613 45.382 14.2913 45.392 14.3013H45.812C45.252 14.3213 45.262 14.3813 45.132 14.3013Z" fill="#65413D"/>
<path d="M50.022 14.1913C50.302 14.2013 49.812 14.2813 49.702 14.3213C49.472 14.3413 49.262 14.3213 49.442 14.2713C49.752 14.2413 49.872 14.2113 50.022 14.1913Z" fill="#65413D"/>
<path d="M47.282 14.0613C47.152 14.1413 46.342 14.1813 46.422 14.2413C46.462 14.2613 46.502 14.2913 46.592 14.3013L46.992 14.2213C48.012 14.1513 46.582 14.3513 47.262 14.3413C47.412 14.3213 47.482 14.3113 47.542 14.3013C47.872 14.2313 47.772 14.2213 47.572 14.2113C48.542 14.1013 48.192 14.3313 48.722 14.2713C49.442 14.1713 48.982 14.1013 49.162 14.0513C49.162 14.1613 50.492 14.1213 51.562 14.0213C52.552 13.8713 53.682 13.8713 54.872 13.6813C55.122 13.6613 55.422 13.6413 55.732 13.6213C55.892 13.6113 56.042 13.6013 56.222 13.5813C56.412 13.5613 56.602 13.4713 56.762 13.3513C56.762 13.3513 56.762 13.3513 56.772 13.3613C56.782 13.3413 56.792 13.3313 56.782 13.3313C56.902 13.2513 57.042 13.0913 57.122 12.8913C57.202 12.6913 57.202 12.4213 57.162 12.2413C57.102 11.8813 57.062 11.5613 57.112 11.5013L57.082 11.3813C57.042 11.0913 57.032 11.0413 57.062 11.0913C57.082 11.1313 57.132 11.2113 57.082 10.9813C56.972 10.6213 56.662 10.2613 56.292 10.1313C56.102 10.0613 55.912 10.0413 55.752 10.0713C55.572 10.1013 55.522 10.1313 55.442 10.1713C55.392 10.1713 55.452 10.1513 55.412 10.1613L54.972 10.2713C54.972 10.2713 54.862 10.3513 54.942 10.3613C54.842 10.3813 54.752 10.4313 54.612 10.4513C54.242 10.5213 54.562 10.4113 54.422 10.4113C53.502 10.6213 52.442 10.8413 51.552 10.9613C51.532 10.8713 50.522 11.0813 50.102 11.1713C49.232 11.2613 48.282 11.6213 47.622 11.6713C47.992 11.5413 48.662 11.4713 48.732 11.3913H48.552C48.152 11.4513 47.512 11.5313 47.292 11.6513C47.522 11.6513 47.542 11.6713 47.622 11.6913C47.452 11.7413 47.422 11.7713 47.202 11.8313C46.882 11.9013 46.522 11.9613 46.512 11.9113C46.682 11.8613 46.882 11.8413 47.042 11.8013C47.092 11.7413 46.512 11.8513 46.322 11.8713C46.682 11.9213 45.792 12.1513 46.722 12.0413L46.222 12.1613C45.862 12.3413 47.862 11.9413 47.012 12.2313C46.932 12.2813 47.052 12.2913 46.762 12.3813C46.932 12.3913 47.252 12.3213 47.382 12.2713C47.622 12.3113 48.632 12.0313 48.682 12.1413C49.502 11.8813 49.932 11.9613 50.702 11.8313C51.672 11.6613 51.032 11.7013 51.292 11.5813C51.782 11.5213 52.262 11.3713 52.552 11.2813C52.812 11.2313 52.982 11.2413 52.812 11.2813C53.802 11.1413 54.842 10.9713 55.802 10.8013C56.112 10.7713 56.402 10.9913 56.422 11.3313C56.452 11.5813 56.492 11.8313 56.522 12.0813L56.572 12.4413C56.572 12.5113 56.572 12.5813 56.552 12.6513C56.502 12.7513 56.422 12.8413 56.342 12.9013C56.302 12.9313 56.252 12.9513 56.202 12.9713C56.152 12.9913 56.112 12.9913 55.992 13.0013C55.602 13.0413 55.202 13.0713 54.802 13.0413H54.942C54.942 13.0413 54.862 13.0813 54.782 13.0913L55.172 13.1313C54.932 13.1413 54.692 13.1613 54.452 13.1913C54.202 13.3113 53.092 13.3213 52.762 13.4513C51.442 13.5513 51.992 13.4513 50.652 13.5513C49.942 13.6513 49.102 13.7813 48.252 13.8513C47.942 13.8813 47.662 13.8613 47.712 13.8413C47.332 13.8813 46.812 13.9313 46.442 13.9713C44.832 14.2213 46.672 14.1113 47.282 14.0613Z" fill="#65413D"/>
<path d="M52.582 10.6313C52.632 10.5713 52.232 10.6313 52.092 10.6313L51.922 10.6813C51.482 10.7913 51.482 10.8513 51.762 10.8213C51.852 10.7613 52.322 10.6613 52.582 10.6313Z" fill="#65413D"/>
<path d="M56.372 10.0513C56.372 10.0513 56.302 10.0613 56.272 10.0713C56.532 10.1413 56.762 10.2813 56.942 10.4913C56.962 10.4513 56.682 10.1513 56.372 10.0513Z" fill="#65413D"/>
<path d="M44.782 12.5413C45.302 12.4513 45.512 12.4613 46.052 12.3313L45.932 12.2613C45.392 12.3213 44.822 12.3713 44.192 12.5013C43.782 12.6813 44.972 12.4213 44.782 12.5413Z" fill="#65413D"/>
<path d="M45.932 12.4913C45.472 12.6313 44.962 12.7113 44.462 12.8113C44.222 12.8613 43.952 12.8913 43.792 12.9713C43.612 13.0613 43.502 13.2213 43.472 13.3813C43.612 13.3513 43.722 13.1113 44.082 13.0413C44.522 12.9313 45.012 12.7913 45.312 12.7713C45.712 12.6713 45.992 12.5913 46.432 12.4813C46.792 12.3613 46.182 12.4613 45.932 12.4913Z" fill="#65413D"/>
<path d="M43.312 13.5513C43.312 13.5513 43.312 13.6513 43.312 13.6913C43.312 13.7113 43.312 13.7313 43.312 13.7513V13.7913L43.192 13.8113L43.332 13.7913V13.7613C43.332 13.7613 43.342 13.6613 43.362 13.6213C43.362 13.5413 43.382 13.3013 43.302 13.5513H43.312Z" fill="#65413D"/>
<path d="M17.502 14.2613C17.832 13.8813 17.802 13.3113 17.442 12.9713L8.78201 4.66128C8.39201 4.29128 7.77201 4.32128 7.42201 4.72128L6.66201 5.59128C6.31201 5.99128 6.37201 6.61128 6.79201 6.94128L16.212 14.3713C16.602 14.6813 17.172 14.6313 17.502 14.2513V14.2613Z" fill="#65413D"/>
<path d="M17.402 13.3813C17.462 13.4813 17.282 13.0813 17.422 13.2913C17.392 13.1413 16.942 12.8213 16.752 12.6213C16.762 12.5613 16.982 12.7013 16.632 12.3113C16.142 11.8013 16.492 12.3313 16.032 11.9013L16.332 12.2113C15.962 11.9813 15.262 11.2213 14.712 10.7313C14.352 10.3013 14.082 9.86128 13.542 9.38128C13.572 9.40128 13.722 9.51128 13.712 9.47128C13.632 9.36128 13.452 9.21128 13.352 9.12128C13.032 8.90128 13.372 9.25128 13.232 9.19128C12.982 8.99128 12.742 8.82128 12.442 8.49128L12.122 8.03128C11.752 7.88128 11.432 7.37128 10.862 6.89128C10.812 6.73128 10.182 6.28128 10.122 6.12128C9.87201 5.88128 10.222 5.92128 10.052 5.69128C9.73201 5.31128 10.322 5.90128 10.002 5.52128C10.412 5.87128 9.98201 5.79128 10.522 6.27128V6.23128C10.762 6.40128 11.072 6.82128 11.272 6.91128C11.822 7.46128 11.182 6.98128 11.422 7.29128C11.622 7.40128 12.282 7.99128 12.362 7.94128L11.922 7.52128C11.992 7.59128 11.952 7.52128 11.992 7.54128C12.232 7.89128 13.282 8.39128 12.862 8.37128C12.792 8.33128 12.642 8.17128 12.582 8.15128C12.562 8.22128 12.882 8.48128 13.102 8.70128C13.382 8.87128 13.722 9.04128 14.052 9.42128C14.162 9.55128 14.062 9.51128 14.172 9.64128C14.962 10.3013 14.822 10.3813 15.622 11.1013C16.052 11.6213 16.682 12.1513 17.112 12.6713C17.072 12.5613 17.452 12.9513 17.542 13.0713C17.602 13.1613 17.732 13.5013 17.692 13.7713C17.692 13.6213 17.672 13.7113 17.652 13.6113C17.682 13.8913 17.572 14.0513 17.502 14.1113C17.462 14.1413 17.432 14.1613 17.412 14.1713C17.402 14.1713 17.392 14.1713 17.382 14.1713H17.372L17.512 14.2913C17.232 14.0413 17.432 14.2213 17.372 14.1713V14.1613L17.392 14.1213L17.422 14.0713C17.422 14.0713 17.442 14.0013 17.452 13.9713C17.462 13.9113 17.462 13.8613 17.452 13.8113C17.452 13.7113 17.452 13.6013 17.382 13.4213L17.402 13.3813Z" fill="#65413D"/>
<path d="M8.72201 4.83128C8.80201 4.83128 8.64201 4.64128 8.48201 4.56128C8.32201 4.48128 8.16201 4.45128 8.44201 4.45128C8.09201 4.33128 7.89201 4.43128 7.73201 4.53128C8.12201 4.42128 7.65201 4.58128 7.86201 4.55128C7.72201 4.61128 7.60201 4.70128 7.51201 4.82128C7.40201 4.95128 7.30201 5.08128 7.19201 5.21128C7.00201 5.47128 6.72201 5.71128 6.64201 5.95128C6.55201 6.21128 6.60201 6.51128 6.77201 6.71128C6.84201 6.81128 6.98201 6.90128 7.10201 7.00128L7.47201 7.30128C8.15201 7.95128 8.85201 8.39128 9.60201 8.88128C10.012 9.25128 9.68201 9.09128 9.54201 9.07128L10.082 9.50128L9.49201 9.13128C9.49201 9.13128 9.69201 9.35128 9.80201 9.48128L9.96201 9.59128C9.65201 9.61128 8.88201 8.73128 8.32201 8.37128C8.95201 8.85128 8.27201 8.24128 8.56201 8.41128L8.37201 8.25128C8.55201 8.39128 8.93201 8.61128 9.38201 8.95128C8.76201 8.45128 8.13201 7.97128 7.52201 7.52128C7.22201 7.29128 6.91201 7.11128 6.62201 6.86128C6.36201 6.58128 6.28201 6.16128 6.40201 5.81128C6.40201 5.86128 6.37201 5.97128 6.43201 5.85128C6.53201 5.61128 6.67201 5.46128 6.73201 5.32128C6.81201 5.18128 6.86201 5.07128 6.91201 4.98128L6.80201 5.16128C6.91201 5.07128 7.04201 4.92128 7.16201 4.76128C7.26201 4.61128 7.44201 4.39128 7.64201 4.30128C7.87201 4.23128 8.07201 4.23128 8.29201 4.28128C8.50201 4.32128 8.77201 4.45128 9.00201 4.68128L8.95201 4.70128L9.31201 5.08128C9.21201 5.00128 9.24201 5.05128 9.25201 5.08128C9.21201 5.06128 9.20201 5.04128 9.14201 4.97128C9.07201 5.00128 9.20201 5.25128 9.37201 5.49128C9.31201 5.42128 9.25201 5.36128 9.20201 5.31128C9.35201 5.50128 9.91201 6.10128 9.57201 5.87128C9.07201 5.39128 9.19201 5.29128 8.72201 4.86128V4.83128Z" fill="#65413D"/>
<path d="M11.092 6.67128C10.752 6.30128 11.232 6.73128 11.182 6.62128L11.512 6.93128C11.512 6.93128 11.162 6.67128 11.092 6.67128Z" fill="#65413D"/>
<path d="M12.022 10.7713C12.022 10.8313 12.292 11.0113 12.432 11.1413C12.732 11.3413 12.832 11.3513 13.232 11.7013C12.832 11.5513 13.472 12.0813 13.722 12.3713C13.512 12.2213 13.092 11.9813 12.812 11.6813C12.872 11.6813 12.602 11.4413 12.462 11.3213C12.202 11.1913 12.522 11.6013 11.612 10.9113C11.462 10.7613 11.032 10.4713 11.102 10.4313C11.002 10.3213 10.842 10.3013 10.752 10.1613L10.702 10.0913L11.292 10.5013C11.292 10.5013 11.342 10.5713 11.392 10.6113C11.312 10.4913 12.062 11.0113 11.752 10.6613L10.982 10.0613C10.812 9.89128 11.102 10.0613 11.382 10.2713C11.752 10.6213 11.742 10.6013 12.032 10.7713H12.022Z" fill="#65413D"/>
<path d="M10.012 9.38128L9.98201 9.34128L10.672 9.85128L10.012 9.38128Z" fill="#65413D"/>
<path d="M14.542 12.7213C14.402 12.6313 14.302 12.5213 14.152 12.4413L14.192 12.3613L14.542 12.7213Z" fill="#65413D"/>
<path d="M7.23201 7.58128C7.12201 7.54128 6.95201 7.42128 6.79201 7.31128C6.65201 7.21128 6.44201 7.05128 6.34201 6.96128C6.47201 7.13128 6.44201 7.05128 6.49201 7.08128C6.40201 6.98128 6.33201 6.87128 6.28201 6.75128C6.40201 6.95128 6.62201 7.13128 6.75201 7.22128C6.90201 7.34128 7.04201 7.44128 7.22201 7.58128H7.23201Z" fill="#65413D"/>
<path d="M15.872 13.7813C16.102 13.9513 16.252 14.0413 16.402 14.1313C16.512 14.1913 16.622 14.2413 16.852 14.2613C16.952 14.2713 16.732 14.3113 16.882 14.3213C17.042 14.3213 17.062 14.2613 17.112 14.2113C17.092 14.2113 17.072 14.2113 17.052 14.2113C17.112 14.2113 17.232 14.1713 17.312 14.1313C17.402 14.0813 17.472 14.0413 17.422 14.1813C16.902 14.6913 16.292 14.5813 15.892 14.0913L15.862 13.9513L15.542 13.7313C15.542 13.7313 15.542 13.7013 15.442 13.6213C15.202 13.4813 15.572 13.7813 15.522 13.8013L14.902 13.3813C14.832 13.3213 14.982 13.4113 14.962 13.3813C14.712 13.1213 14.452 13.0913 14.262 12.8413L14.662 13.0913C14.232 12.7313 13.922 12.4413 13.632 12.1713C14.502 12.8813 15.132 13.0813 15.882 13.7913L15.872 13.7813Z" fill="#65413D"/>
<path d="M14.142 17.5913C14.182 17.0913 13.822 16.6513 13.322 16.5913L1.42201 15.0913C0.892014 15.0213 0.412014 15.4113 0.372014 15.9513L0.282014 17.1013C0.242014 17.6313 0.652014 18.1013 1.19201 18.1113L13.182 18.4613C13.682 18.4713 14.112 18.0913 14.142 17.5913Z" fill="#65413D"/>
<path d="M5.28201 17.9613C5.04201 17.9613 4.64201 17.9313 4.71201 17.8913L4.66201 17.8613C4.86201 17.8713 5.70201 17.9013 5.28201 17.9613Z" fill="#65413D"/>
<path d="M5.33201 18.1513C5.13201 18.1313 5.28201 18.1213 5.32201 18.1113H5.60201C5.68201 18.1513 5.45201 18.1513 5.33201 18.1513Z" fill="#65413D"/>
<path d="M5.20201 18.5613H5.28201C5.20201 18.5613 5.08201 18.5613 5.00201 18.5513C5.00201 18.5313 5.15201 18.5113 5.31201 18.5313C5.27201 18.5513 5.12201 18.5413 5.20201 18.5713V18.5613Z" fill="#65413D"/>
<path d="M1.13201 17.9913C1.06201 18.0513 1.32201 18.1613 1.66201 18.2313L1.53201 18.3313C1.39201 18.2913 1.23201 18.3113 0.972014 18.2613C0.722014 18.2113 0.472014 18.0613 0.332014 17.8713C0.182014 17.7413 0.612014 18.2413 0.272014 17.8813C0.252014 17.8313 0.292014 17.8413 0.252014 17.7513C0.132014 17.5713 0.102014 17.5213 0.0520139 17.4113C-0.00798609 17.3113 -0.0179861 17.0613 0.0320139 16.7113L0.102014 16.4613C0.112014 16.3013 0.122014 16.1313 0.132014 15.9613C0.132014 15.7813 0.192014 15.5513 0.302014 15.3713C0.512014 15.0013 0.942014 14.7613 1.37201 14.7813C2.08201 14.8413 2.70201 14.9213 3.33201 15.0213C3.56201 14.9913 4.20201 15.0913 4.59201 15.1113V15.1413C4.82201 15.1113 5.19201 15.2313 5.47201 15.2613L5.71201 15.3213C5.80201 15.3813 5.00201 15.2613 5.21201 15.3613C5.73201 15.4713 6.11201 15.4013 6.56201 15.5113C7.00201 15.5813 6.95201 15.5413 7.23201 15.5513C7.30201 15.5313 7.15201 15.5113 7.18201 15.4713C8.17201 15.5713 8.20201 15.7513 9.07201 15.8413C9.11201 15.8213 9.81201 15.8413 9.17201 15.7213H8.86201L8.66201 15.6513C8.90201 15.6813 9.33201 15.7413 9.29201 15.6913C9.59201 15.8513 10.942 15.7813 10.252 15.8813C9.85201 15.8013 9.73201 15.7913 9.46201 15.8113C10.372 15.9413 11.182 16.0913 11.932 16.1813L12.162 16.1513C12.162 16.2113 12.532 16.2913 12.892 16.3513C13.052 16.3513 13.252 16.3913 13.202 16.3513C13.272 16.3313 11.892 16.1613 12.552 16.1513C12.752 16.1813 12.962 16.2213 13.182 16.2513C13.362 16.2813 13.662 16.3213 13.862 16.4813C14.072 16.6213 14.202 16.8213 14.272 17.0213C14.302 17.1213 14.332 17.2213 14.332 17.3113C14.332 17.3613 14.332 17.4013 14.332 17.4413C14.332 17.4613 14.332 17.4813 14.332 17.5013V17.5413V17.5513C14.272 17.5513 14.472 17.5613 14.192 17.5513C14.462 17.5713 14.272 17.5513 14.332 17.5613V17.5413V17.4813C14.332 17.4513 14.332 17.4313 14.332 17.4013C14.332 17.3513 14.322 17.3013 14.312 17.2513C14.292 17.1513 14.252 17.0613 14.202 16.9813C14.102 16.8113 13.952 16.6713 13.732 16.6013C13.562 16.5113 13.362 16.5113 13.192 16.4913C13.002 16.4713 12.832 16.4513 12.652 16.4313C12.282 16.3913 11.922 16.3513 11.562 16.3013C10.832 16.2113 10.112 16.1313 9.42201 16.0913C9.37201 16.0513 9.01201 15.9913 9.13201 15.9613C9.01201 15.9213 8.65201 15.9013 8.57201 15.8413C7.51201 15.7613 6.27201 15.5713 5.32201 15.4513C5.57201 15.5813 4.74201 15.4413 4.46201 15.4513C4.21201 15.3813 3.78201 15.3413 3.46201 15.3013C3.42201 15.3113 3.23201 15.3013 3.27201 15.3313C3.51201 15.3513 3.59201 15.3813 3.83201 15.4213C3.72201 15.4813 3.31201 15.3513 2.96201 15.3013H3.15201C2.55201 15.2213 1.87201 14.9813 1.31201 15.0213C1.47201 15.0413 1.61201 15.0913 1.77201 15.1313C1.60201 15.1313 1.43201 15.0813 1.26201 15.1013C1.09201 15.1213 0.922014 15.1913 0.782014 15.2913C0.492014 15.5113 0.432014 15.8613 0.472014 16.1113C0.492014 15.8813 0.532014 15.6113 0.692014 15.4313C0.842014 15.2613 1.01201 15.2013 1.02201 15.2513C1.02201 15.2813 0.922014 15.3413 0.822014 15.4313C0.722014 15.5313 0.642014 15.6713 0.602014 15.7613C0.492014 16.2213 0.492014 16.7613 0.482014 17.1713C0.522014 17.5613 0.802014 17.8613 1.19201 17.9613L1.13201 17.9913Z" fill="#65413D"/>
<path d="M0.552014 17.1313C0.612014 16.2713 0.452014 16.6613 0.532014 15.8613C0.562014 15.9513 0.662014 15.6313 0.832014 15.5113C0.962014 15.3413 1.22201 15.2913 1.41201 15.3313C1.49201 15.3513 1.52201 15.3713 1.50201 15.3813C1.48201 15.3913 1.37201 15.3913 1.28201 15.3913C1.01201 15.3413 0.692014 15.6013 0.662014 15.9113C0.642014 16.2913 0.622014 16.7713 0.552014 17.1213V17.1313Z" fill="#65413D"/>
<path d="M0.522014 17.8013C0.382014 17.6313 0.382014 17.5513 0.382014 17.4813C0.382014 17.4113 0.372014 17.3513 0.352014 17.1613C0.432014 17.3113 0.332014 17.3913 0.542014 17.7013C0.492014 17.6513 0.442014 17.6013 0.402014 17.5413C0.432014 17.6313 0.462014 17.7213 0.522014 17.8013Z" fill="#65413D"/>
<path d="M1.52201 15.2613C1.80201 15.2913 2.44201 15.4013 2.45201 15.4613C2.49201 15.4713 2.42201 15.4913 2.57201 15.5013C2.33201 15.4513 1.61201 15.3513 1.52201 15.2513V15.2613Z" fill="#65413D"/>
<path d="M0.392014 15.5113C0.472014 15.3613 0.582014 15.2113 0.822014 15.0813C0.672014 15.1713 0.522014 15.3313 0.392014 15.5113Z" fill="#65413D"/>
<path d="M1.90201 15.1913C1.85201 15.1413 2.14201 15.2113 2.22201 15.2213L2.38201 15.2613C2.22201 15.2613 2.03201 15.2313 1.90201 15.1913Z" fill="#65413D"/>
<path d="M4.26201 15.6313C4.66201 15.7013 3.83201 15.6313 4.31201 15.7113L4.03201 15.6813L3.94201 15.5913L4.26201 15.6313Z" fill="#65413D"/>
<path d="M4.87201 15.7713C4.99201 15.7713 5.10201 15.7713 5.31201 15.8213H5.20201C5.12201 15.8313 5.04201 15.7913 4.88201 15.7713H4.87201Z" fill="#65413D"/>
<path d="M4.36201 15.5413C4.56201 15.5413 4.52201 15.5813 4.64201 15.6113C4.56201 15.6213 4.16201 15.5213 4.36201 15.5413Z" fill="#65413D"/>
<path d="M6.35201 15.3313C6.16201 15.3713 5.80201 15.2913 5.44201 15.2613C5.79201 15.2913 5.95201 15.2713 6.35201 15.3313Z" fill="#65413D"/>
<path d="M8.18201 17.9913C8.35201 18.0213 8.54201 18.0013 8.66201 17.9913L8.57201 17.9713L8.18201 17.9913Z" fill="#65413D"/>
<path d="M5.77201 17.8913C5.59201 17.9613 5.90201 17.9313 6.23201 17.9913C6.67201 18.0213 7.14201 17.9713 7.58201 17.9913L7.85201 17.9613C7.32201 17.9213 6.40201 17.8713 5.77201 17.8913Z" fill="#65413D"/>
<path d="M5.43201 18.2313C5.76201 18.2713 6.18201 18.2313 6.42201 18.2313C6.01201 18.2113 5.50201 18.1913 5.22201 18.1813C5.18201 18.2013 5.35201 18.2113 5.43201 18.2213V18.2313Z" fill="#65413D"/>
<path d="M12.442 18.0813C11.882 18.0713 11.112 17.9913 10.492 18.0613C10.772 18.0813 10.782 18.1013 11.222 18.1313C10.892 18.2113 10.542 18.1013 10.142 18.0913C10.472 18.1213 10.042 18.1513 9.76201 18.1513C9.23201 18.1113 8.40201 18.1013 7.68201 18.0813C7.37201 18.1013 6.36201 18.0213 6.50201 18.1213C6.06201 18.1213 6.00201 18.0413 5.68201 18.0113C4.71201 18.0913 3.95201 17.7613 2.91201 17.8613C2.98201 17.8113 2.46201 17.8013 2.26201 17.7913C2.04201 17.7913 1.67201 17.7713 1.38201 17.7713C1.32201 17.7713 1.25201 17.7713 1.19201 17.7713C1.16201 17.7713 1.13201 17.7713 1.10201 17.7713C1.05201 17.7713 1.03201 17.7813 1.06201 17.8213C1.14201 17.8813 1.38201 17.8613 1.63201 17.8613C1.88201 17.8613 2.14201 17.8613 2.37201 17.8913C3.16201 18.0213 1.54201 17.9113 1.53201 18.0013C1.65201 17.9913 1.71201 18.0713 2.06201 18.0513C1.31201 18.0713 2.37201 18.1613 1.98201 18.2013C2.83201 18.2813 2.75201 18.2813 3.18201 18.4113C3.69201 18.4113 3.55201 18.3213 3.70201 18.2813C4.25201 18.2513 4.67201 18.3713 5.15201 18.3613C4.79201 18.4913 5.94201 18.4913 6.50201 18.5113C7.22201 18.5413 6.75201 18.3913 7.51201 18.4313C7.89201 18.5113 6.73201 18.5013 7.23201 18.5913L7.58201 18.5713C7.81201 18.5213 7.99201 18.4613 8.26201 18.4213C8.42201 18.4213 8.66201 18.4213 8.66201 18.4513C8.35201 18.4613 8.44201 18.5213 8.77201 18.5613C8.92201 18.5413 8.96201 18.5413 9.04201 18.5213C8.40201 18.3513 9.72201 18.5313 10.172 18.4613C11.502 18.3713 10.862 18.6613 12.162 18.6313C11.962 18.5613 12.182 18.5513 12.502 18.5513C12.822 18.5413 13.232 18.6013 13.472 18.5113C13.842 18.3913 13.972 18.2913 14.172 18.0713C14.232 17.9713 14.302 17.6513 14.272 17.6013C14.182 17.7013 14.042 17.9713 13.742 18.1213C13.592 18.1913 13.422 18.2313 13.252 18.2013C13.002 18.1613 12.762 18.1113 12.512 18.0713C12.482 18.0713 12.452 18.0713 12.462 18.0713L12.442 18.0813Z" fill="#65413D"/>
</svg>
