<svg width="24" height="31" viewBox="0 0 24 31" fill="none" xmlns="http://www.w3.org/2000/svg">
<path d="M23.1235 23.9217L21.8336 20.1095C20.3939 15.871 16.4204 13.0262 11.9401 13.0262C7.45978 13.0262 3.48626 15.871 2.04657 20.1095L0.756619 23.9217C0.249852 25.4305 0.480201 27.0315 1.41311 28.3214C2.33451 29.6114 3.78571 30.3485 5.3636 30.3485H18.5165C20.1059 30.3485 21.5456 29.6114 22.467 28.3214C23.3884 27.0315 23.6303 25.4305 23.1235 23.9217ZM20.9697 27.2503C20.3939 28.0565 19.4955 28.5172 18.505 28.5172H5.3636C4.3731 28.5172 3.47474 28.0565 2.89887 27.2503C2.32299 26.4441 2.17327 25.4536 2.49575 24.5206L3.78571 20.7084C4.97201 17.2186 8.24296 14.869 11.9285 14.869C15.6141 14.869 18.8851 17.2186 20.0714 20.7084L21.3613 24.5206C21.6838 25.4536 21.5341 26.4556 20.9582 27.2503H20.9697Z" fill="#65413D"/>
<path d="M11.94 10.4348C14.8194 10.4348 17.1574 8.09677 17.1574 5.21741C17.1574 2.33804 14.8194 0 11.94 0C9.06067 0 6.72263 2.33804 6.72263 5.21741C6.72263 8.09677 9.06067 10.4348 11.94 10.4348ZM11.94 1.84279C13.8059 1.84279 15.3146 3.35158 15.3146 5.21741C15.3146 7.08323 13.7943 8.59202 11.94 8.59202C10.0857 8.59202 8.56542 7.08323 8.56542 5.21741C8.56542 3.35158 10.0742 1.84279 11.94 1.84279Z" fill="#65413D"/>
</svg>
