<svg width="30" height="30" viewBox="0 0 30 30" fill="none" xmlns="http://www.w3.org/2000/svg">
<path d="M10.87 13.97H3.1C1.39 13.97 0 12.58 0 10.87V3.1C0 1.39 1.39 0 3.1 0H10.87C12.58 0 13.97 1.39 13.97 3.1V10.87C13.97 12.58 12.58 13.97 10.87 13.97ZM3.1 1.61C2.28 1.61 1.61 2.28 1.61 3.1V10.87C1.61 11.69 2.28 12.36 3.1 12.36H10.87C11.69 12.36 12.36 11.69 12.36 10.87V3.1C12.36 2.28 11.69 1.61 10.87 1.61H3.1Z" fill="#EFEDE4"/>
<path d="M26.9 13.97H19.13C17.42 13.97 16.03 12.58 16.03 10.87V3.1C16.03 1.39 17.42 0 19.13 0H26.9C28.61 0 30 1.39 30 3.1V10.87C30 12.58 28.61 13.97 26.9 13.97ZM19.13 1.61C18.31 1.61 17.64 2.28 17.64 3.1V10.87C17.64 11.69 18.31 12.36 19.13 12.36H26.9C27.72 12.36 28.39 11.69 28.39 10.87V3.1C28.39 2.28 27.72 1.61 26.9 1.61H19.13Z" fill="#EFEDE4"/>
<path d="M10.87 30H3.1C1.39 30 0 28.61 0 26.9V19.13C0 17.42 1.39 16.03 3.1 16.03H10.87C12.58 16.03 13.97 17.42 13.97 19.13V26.9C13.97 28.61 12.58 30 10.87 30ZM3.1 17.64C2.28 17.64 1.61 18.31 1.61 19.13V26.9C1.61 27.72 2.28 28.39 3.1 28.39H10.87C11.69 28.39 12.36 27.72 12.36 26.9V19.13C12.36 18.31 11.69 17.64 10.87 17.64H3.1Z" fill="#EFEDE4"/>
<path d="M26.9 30H19.13C17.42 30 16.03 28.61 16.03 26.9V19.13C16.03 17.42 17.42 16.03 19.13 16.03H26.9C28.61 16.03 30 17.42 30 19.13V26.9C30 28.61 28.61 30 26.9 30ZM19.13 17.64C18.31 17.64 17.64 18.31 17.64 19.13V26.9C17.64 27.72 18.31 28.39 19.13 28.39H26.9C27.72 28.39 28.39 27.72 28.39 26.9V19.13C28.39 18.31 27.72 17.64 26.9 17.64H19.13Z" fill="#EFEDE4"/>
</svg>
