<svg width="28" height="26" viewBox="0 0 28 26" fill="none" xmlns="http://www.w3.org/2000/svg">
<path d="M1.99607 26.0001C1.6378 26.0001 1.27953 25.8977 0.962208 25.7032C0.358269 25.3347 0 24.7001 0 23.9938V5.51734C0 2.47717 2.47717 0 5.51734 0H22.4072C25.4473 0 27.9245 2.47717 27.9245 5.51734V17.7087C27.9245 20.7489 25.4473 23.2261 22.4072 23.2261H7.89216C7.83074 23.2261 7.77956 23.2363 7.72838 23.267L2.91733 25.7647C2.62048 25.9182 2.31339 25.9899 1.99607 25.9899V26.0001ZM5.51734 1.64804C3.37797 1.64804 1.6378 3.3882 1.6378 5.52758V24.004C1.6378 24.178 1.74016 24.2702 1.81182 24.3009C1.87324 24.3418 2.00631 24.393 2.15985 24.3111L6.97089 21.8135C7.25751 21.6702 7.57483 21.5883 7.89216 21.5883H22.4072C24.5466 21.5883 26.2867 19.8481 26.2867 17.7087V5.51734C26.2867 3.37797 24.5466 1.6378 22.4072 1.6378H5.51734V1.64804Z" fill="#65413D"/>
</svg>
