<svg width="28" height="26" viewBox="0 0 28 26" fill="none" xmlns="http://www.w3.org/2000/svg">
<path d="M22.4677 2.12463H20.7126V0H19.0601V2.12463H8.92961V0H7.27712V2.12463H5.52199C2.48387 2.12463 0 4.6085 0 7.65688V20.3534C0 23.4017 2.48387 25.8856 5.53225 25.8856H22.4677C25.5161 25.8856 28 23.4017 28 20.3534V7.65688C28 4.6085 25.5161 2.12463 22.4677 2.12463ZM5.53225 3.76686H7.28738V5.89149H8.93987V3.76686H19.0704V5.89149H20.7229V3.76686H22.478C24.6231 3.76686 26.368 5.51172 26.368 7.65688V9.88415H1.65249V7.65688C1.65249 5.51172 3.39736 3.76686 5.54252 3.76686H5.53225ZM22.4677 24.2331H5.53225C3.38709 24.2331 1.64223 22.4882 1.64223 20.3431V11.5264H26.3475V20.3431C26.3475 22.4882 24.6026 24.2331 22.4575 24.2331H22.4677Z" fill="#65413D"/>
</svg>
