<svg width="55" height="47" viewBox="0 0 55 47" fill="none" xmlns="http://www.w3.org/2000/svg">
<path d="M19.3658 5.79948C19.439 5.5903 19.4521 5.3785 19.4103 5.37327C19.3841 5.47786 19.3318 5.63736 19.2848 5.74457L19.3318 5.63736C19.3998 5.53277 19.3475 5.74457 19.3658 5.79687V5.79948Z" fill="#D18730" fill-opacity="0.9"/>
<path d="M32.567 4.6385C32.4833 4.47376 32.3997 4.3221 32.2638 4.11553C32.5252 4.5339 32.6297 5.03857 32.7997 5.25037C32.7369 4.97581 32.6559 4.80062 32.567 4.63588V4.6385Z" fill="#D18730" fill-opacity="0.9"/>
<path d="M19.2952 7.39976C19.3135 7.88612 19.392 7.95934 19.4652 8.03517C19.5462 8.111 19.5854 8.1999 19.703 8.67842C19.7109 8.93206 19.5985 8.70457 19.4965 8.48492C19.4129 8.26266 19.3318 8.04824 19.324 8.39602C19.3606 8.55029 19.4338 8.69672 19.4913 8.84577C19.6638 9.11248 19.886 9.28245 20.0795 9.57269C20.1657 9.75835 20.32 10.0251 20.286 10.0538C20.0586 9.71651 20.0246 9.86556 20.1814 10.2839C20.3304 10.433 20.367 10.4696 20.4533 10.5271C20.3409 10.0983 20.4663 10.2839 20.6755 10.616C20.7853 10.7781 20.9395 10.9664 21.0833 11.1416C21.2454 11.3011 21.41 11.4449 21.5381 11.5155C22.2492 11.9757 22.4008 12.1195 22.5315 12.3313C22.6753 12.5092 22.8034 12.7602 23.6268 13.0112C23.4229 12.8125 23.7 12.8726 24.0895 12.9824C24.4816 13.087 25.0149 13.1812 25.2894 13.1576C25.7442 13.2021 25.9089 13.2701 26.2383 13.3407C26.3664 13.3041 26.7245 13.2648 26.7715 13.2152C26.7036 13.1446 26.5938 13.0792 26.4552 13.0138C26.552 13.006 26.6487 13.006 26.7454 12.9929C28.6955 12.7654 30.3372 11.7169 31.3279 10.2604C31.0743 10.6605 30.7633 11.0344 30.4078 11.3665C29.7385 11.9914 28.936 12.4673 28.1074 12.8125C27.8773 12.9615 27.663 13.0347 27.4512 13.1053C27.2369 13.1603 27.0199 13.1916 26.7715 13.2465C26.9467 13.2544 27.1532 13.2544 27.3832 13.2465C27.6107 13.2309 27.8564 13.1838 28.1152 13.1393C28.6223 13.0086 29.1817 12.8256 29.6706 12.5353C29.9973 12.2346 29.7595 12.334 29.4588 12.4856C29.1582 12.6425 28.753 12.7994 28.7844 12.7602C28.7086 12.7419 28.9465 12.6373 29.119 12.5275C29.5451 12.3366 29.9817 12.1195 30.0549 12.1797L30.23 11.9208C31.0142 11.322 31.7906 10.5297 32.3134 9.40534C32.2402 9.75835 32.2036 9.93093 31.8586 10.365C31.7671 10.8435 31.8638 10.6395 32.0389 10.2813C32.2167 9.9257 32.3945 9.3975 32.567 9.23277C32.4833 9.2746 32.6925 8.71241 32.7526 8.38817L32.6141 8.64966C32.6036 8.79086 32.5827 8.93206 32.5487 9.06803C32.1723 9.86817 32.384 8.93206 32.3474 8.88761C32.4311 8.61305 32.486 8.40386 32.5618 8.22605C32.6193 8.04563 32.6768 7.89397 32.7369 7.73446C32.8415 7.41807 32.9513 7.05722 32.8728 6.38259C32.7997 6.35122 32.8153 6.56563 32.7474 6.47673C32.6872 6.11327 32.6114 6.19432 32.5356 5.61383C32.4807 4.99673 32.1121 4.61758 31.8455 3.97694C31.8324 3.63963 32.3004 4.61235 32.316 4.46592C32.2951 4.35086 32.2507 4.24889 32.2167 4.13645C32.0416 3.80436 31.8533 3.29447 31.5789 3.11928L31.6181 3.07221C31.2626 2.66691 30.6064 2.07334 30.3084 1.97136C29.6627 1.42225 28.8393 1.03002 27.9714 0.828678C27.1009 0.624721 26.1938 0.601187 25.3286 0.705781C25.2135 0.684862 25.0985 0.674402 24.9783 0.661328C24.4659 0.713625 24.2882 0.823448 24.1784 0.886204C24.0712 0.962035 24.0294 1.01433 23.8228 1.12415C23.7131 1.14246 23.7366 1.08232 23.6712 1.07447C23.1981 1.29673 23.8568 1.0797 23.6817 1.18953C23.1824 1.35949 22.6334 1.74126 22.2988 1.83801C22.2858 1.92168 22.2779 2.00797 22.2753 2.09949C22.4897 2.02889 22.6883 1.99228 22.8321 1.99228C22.6073 2.12041 22.3929 2.26422 22.189 2.41588C22.0348 2.46557 21.8152 2.5597 21.9799 2.37143C21.5277 2.67475 21.329 2.83687 21.18 2.94408C21.031 3.05652 20.8977 3.0879 20.6415 3.25525C20.252 3.82267 20.5082 3.76253 20.469 3.96387C20.1736 4.59143 19.7815 5.03072 19.6664 5.64782C19.6037 5.38634 19.4704 5.62168 19.3737 6.0322C19.2796 6.44273 19.2534 7.02323 19.2822 7.39715L19.2952 7.39976ZM31.7514 4.14168C32.3814 5.21115 32.6114 6.82973 32.4206 8.1816C32.2873 8.27573 32.2455 8.72549 32.1331 8.85884C32.12 8.76994 32.0546 8.87715 31.9814 8.98697C32.2873 8.1633 32.4154 7.26641 32.3082 6.34599C32.1827 5.27129 31.7566 4.3038 31.1266 3.49581C31.4168 3.80698 31.7592 4.46592 31.7488 4.14168H31.7514ZM30.8678 3.1768C30.6352 2.91793 30.3764 2.6826 30.0993 2.46818C30.1097 2.47341 30.1228 2.47864 30.1307 2.48126C30.3764 2.66952 30.6822 2.93101 30.8678 3.17942V3.1768ZM29.3438 1.96352C28.9334 1.7308 28.4942 1.53991 28.0315 1.40133C27.94 1.34642 27.8459 1.2915 27.7466 1.24967C28.2799 1.27843 28.8471 1.61574 29.3438 1.96352Z" fill="#D18730" fill-opacity="0.9"/>
<path d="M53.9137 40.5298L53.634 38.132C53.0327 32.9938 51.6316 28.6636 49.4305 25.1441C48.9286 24.3413 48.3823 23.5987 47.8019 22.8979C48.8999 24.1949 49.8566 25.6618 50.6304 27.2228C52.0106 29.9841 52.8759 33.0016 53.4406 35.9303C53.8719 37.6508 53.9372 38.8536 54.1673 40.4984C54.0993 39.3583 54.0157 37.8548 53.7987 36.1761C53.5739 34.5052 53.2001 32.6826 52.6668 30.9542C52.1335 29.6651 52.3714 30.426 52.672 31.4824C52.9752 32.5414 53.2785 33.9116 53.2131 33.773C53.2131 33.9822 53.0301 33.1481 52.8367 32.5153C52.4707 31.0196 51.974 29.5239 52.042 29.4245C51.8982 29.1395 51.7414 28.8597 51.5924 28.5799C50.9624 27.0895 50.2095 25.586 49.224 24.1112C48.2463 22.6364 47.0177 21.2035 45.4859 19.9353C46.4139 20.5995 46.8295 20.9289 47.9614 22.2808C49.0044 23.2823 48.5522 22.7253 47.6948 21.8101C46.8373 20.8897 45.4493 19.7758 44.9578 19.292C45.1068 19.462 43.554 18.3429 42.6234 17.8774C42.8822 18.0369 43.1306 18.2173 43.3789 18.3899C43.7684 18.607 44.1553 18.8292 44.5317 19.0724C46.7302 20.8296 44.2598 19.0855 44.1056 19.0829C42.5398 18.0631 41.6667 17.5898 40.723 17.106C39.7741 16.6484 38.7337 16.1569 36.6319 15.7437C36.4986 15.7882 37.1704 15.9215 36.8593 15.9215C36.279 15.8169 36.0385 15.8065 35.7118 15.7725C35.3641 15.7333 34.9615 15.6862 34.0309 15.579C32.0965 15.3123 30.5385 15.5398 28.2877 15.6679C27.8093 15.647 28.421 15.5424 29.1086 15.4796C29.7934 15.4064 30.5541 15.3698 30.3476 15.3253C29.9921 15.3253 29.6366 15.3175 29.2837 15.3253C28.1021 15.4142 26.4709 15.5005 25.5429 15.7855L25.4933 15.7333C24.6777 15.9137 23.5954 16.1673 22.6178 16.4759C21.6401 16.7792 20.7696 17.1217 20.3461 17.3518C17.8261 18.301 15.3715 19.8072 13.2619 21.7317C11.1497 23.6588 9.39827 26.02 8.15135 28.5538C7.95529 28.865 7.77753 29.184 7.59455 29.503C6.92534 31.0091 6.77895 31.6236 6.69268 32.0158C6.60903 32.4107 6.60903 32.5963 6.43911 33.3259C6.33455 33.6658 6.31887 33.5194 6.24567 33.6972C5.91107 35.3445 6.4365 33.1664 6.33194 33.8149C5.91891 35.4727 5.75161 37.6482 5.62613 38.7308L5.80912 39.2799C5.88493 38.532 6.0104 37.8835 6.12542 37.4652C6.047 38.3411 6.00256 39.2328 6.00779 40.1428C5.96335 40.6605 5.9163 41.4266 5.85356 40.603C5.85356 42.4124 5.94505 43.2309 5.98426 43.8271C6.01302 44.1252 6.03132 44.3683 6.047 44.6534C6.05484 44.7946 6.06269 44.9462 6.07053 45.124C6.07576 45.2129 6.07837 45.3045 6.0836 45.4064C6.08621 45.4927 6.11235 45.7202 6.12804 45.9006C6.16725 46.1203 6.20385 46.3242 6.24044 46.5125C6.24829 46.5308 6.24044 46.5674 6.26136 46.5726L6.33194 46.5622L6.46787 46.5439C6.55414 46.5308 6.63779 46.5204 6.71882 46.5099C6.87305 46.4864 7.01683 46.4654 7.15015 46.4471C7.25471 46.4288 7.35405 46.4131 7.44554 46.3975C7.69911 46.3478 7.84027 46.3059 7.93438 46.2693C8.12259 46.1935 8.11998 46.136 8.42321 46.0601C10.6896 45.7071 12.509 45.6941 14.4801 45.4195C13.0162 45.8588 17.8078 45.2365 20.137 44.9567C23.1484 44.6167 21.1251 44.6063 24.3117 44.2559C25.9115 44.1958 21.1068 44.7998 23.2112 44.69L24.6698 44.4651C25.5926 44.2533 26.3219 44.0336 27.4355 43.8297C28.1021 43.7512 29.1007 43.631 29.1321 43.6676C27.8303 43.8637 28.2407 43.916 29.6209 43.8114C30.2561 43.6963 30.413 43.665 30.7162 43.5891C27.9949 43.6205 33.5394 43.2413 35.4111 42.857C40.9007 41.9784 38.3389 42.8517 43.7475 42.096C42.0562 42.0437 47.3183 41.5469 49.0776 41.2462C50.5833 41.0763 51.1375 41.0815 52.1989 41.037C52.6093 40.9612 53.7699 40.8122 53.9398 40.7442C53.7412 40.6919 53.3987 40.6579 52.9491 40.637L53.9163 40.5245L53.9137 40.5298ZM28.5805 23.481C30.9567 23.2038 32.9225 23.447 34.4753 24.2079C34.6008 24.2707 34.721 24.3413 34.8413 24.4119C34.6478 24.3099 34.4361 24.2027 34.2426 24.1295C33.861 23.9778 33.5865 23.9229 33.7956 24.0903C32.946 23.7608 31.8978 23.549 30.8156 23.5124C29.7333 23.4732 28.6171 23.5908 27.6237 23.8183C27.4251 23.7503 26.7742 23.9438 26.5284 23.9674C26.6304 23.8968 26.4683 23.9151 26.2827 23.9412C26.999 23.7347 27.7597 23.5804 28.5779 23.4836L28.5805 23.481ZM38.1742 28.2662C38.3128 28.5616 38.4409 28.878 38.569 29.2049C38.6082 29.3696 38.6474 29.5344 38.6814 29.7017C38.3468 29.014 38.0618 28.1014 37.6514 27.2882C37.8344 27.5968 38.0122 27.921 38.1742 28.2688V28.2662ZM36.7548 26.02C36.7548 26.02 36.7469 26.0148 36.7443 26.0122C36.4202 25.62 35.9313 25.2016 35.5628 24.8773C35.9915 25.2016 36.3862 25.586 36.7548 26.02ZM24.6123 24.5583C23.8124 24.9662 23.036 25.4578 22.3616 26.088C21.3159 27.045 20.5369 28.2845 20.0873 29.5684C19.9122 30.3607 19.7292 30.8653 19.5697 31.6079C19.9461 30.6378 20.5657 29.0532 21.5041 27.8164C21.7839 27.283 21.5486 27.5262 21.2558 27.9106C20.963 28.2949 20.6702 28.844 20.6755 28.7708C20.5918 28.831 20.767 28.4937 20.9055 28.2322C21.2741 27.6491 21.7708 27.1549 21.8701 27.2019C21.9329 27.0764 21.993 26.9457 22.0662 26.8228C23.0282 25.7795 24.3823 25.0081 26.0187 24.4982C25.5821 24.744 25.3835 24.8224 24.6777 25.0918C24.2202 25.5284 24.4738 25.3559 24.9286 25.097C25.3835 24.8329 26.0893 24.5322 26.403 24.5688C26.2906 24.5217 27.0774 24.3099 27.5166 24.2289C27.3832 24.2289 27.2499 24.2367 27.1192 24.2419C26.9362 24.3021 26.7559 24.3727 26.5755 24.4433C25.3992 24.7204 26.599 24.2158 26.6539 24.1609C27.4538 23.9412 27.9061 23.9543 28.374 23.9595C28.8445 23.9726 29.3386 23.9778 30.2588 23.9412C30.311 23.868 30.013 23.8785 30.1437 23.8131C30.6587 23.7791 30.5672 23.6928 31.3985 23.7739C32.2272 23.9621 32.9513 23.8549 33.8584 24.2942C34.0204 24.4433 33.7643 24.3544 33.4793 24.2785C33.1944 24.2001 32.8755 24.1295 32.946 24.2027C33.0872 24.2576 33.2231 24.323 33.3617 24.3857C33.8479 24.5296 34.3943 24.927 34.7733 25.0551L34.755 25.1153C35.3876 25.4029 36.1823 26.2501 36.4986 26.5168C37.8527 28.3525 38.7546 30.8549 39.2356 33.3259L39.2277 33.8227C39.4368 35.3393 39.4944 34.751 39.6146 35.1876C39.5309 35.1876 39.5022 35.1327 39.4473 35.1118C39.3427 35.1458 39.3584 35.1615 39.4185 35.172C39.4761 35.1824 39.5754 35.1876 39.5231 35.2138C39.2225 35.2556 38.8748 35.3027 38.5611 35.3445C38.1586 35.3942 37.7873 35.4256 37.5364 35.4073L37.3142 35.6374C37.6436 35.6583 37.9416 35.6949 38.1455 35.7472L36.9508 35.8858C36.7077 35.8623 36.3418 35.8492 36.7156 35.7498C35.0556 35.8414 35.2099 35.8231 34.3498 35.7054C33.3643 35.857 33.6571 35.9721 33.3852 36.0872C32.3448 36.2963 31.4926 36.197 30.5855 36.3486C31.2443 36.0035 29.038 36.3251 27.9636 36.4558C26.5729 36.6049 27.5218 36.7435 26.0501 36.8925C25.305 36.8507 27.5192 36.55 26.5389 36.5291L25.8697 36.6624C25.4514 36.8141 25.1221 36.9867 24.6123 37.12C24.3038 37.1566 23.8438 37.2141 23.8281 37.1749C24.4267 37.0625 24.2306 36.984 23.5902 37.0023C23.3 37.0782 23.2268 37.0965 23.0909 37.154C24.364 37.2926 21.7891 37.324 20.9369 37.5907C20.3069 37.724 19.9069 37.7789 19.622 37.7946C19.3763 37.8051 19.2691 37.7711 19.1933 37.7319C19.0783 37.7397 19.1881 37.5175 19.2011 37.3867C19.2142 37.2926 19.2247 37.2952 19.222 37.039C19.222 36.8298 19.2142 36.5761 19.1985 36.265C18.9371 37.0285 19.0757 34.6124 19.107 33.7939C19.1907 33.1036 19.3031 32.8657 19.4652 32.4081C19.4704 32.2172 19.5723 31.6968 19.5462 31.6053C19.4573 31.6655 19.3554 31.7962 19.2508 31.9662C19.2796 31.8302 19.3005 31.6838 19.3318 31.553C19.9252 29.1081 20.9892 27.2255 22.5289 25.905C23.1484 25.3742 23.849 24.9296 24.6254 24.5662L24.6123 24.5583ZM47.3706 22.3985C47.4124 22.4429 47.4517 22.4874 47.4935 22.5318C47.4543 22.4874 47.4124 22.4429 47.3706 22.3985ZM28.5831 15.8091C30.6012 15.6313 32.9487 15.6156 35.3144 15.9607C37.6776 16.2954 40.0381 17.0224 42.0666 18.0186C42.3855 18.2801 43.6952 18.9887 44.1004 19.3522C43.8625 19.2293 44.1762 19.4855 44.5056 19.7627C43.3083 18.8763 42.0013 18.1337 40.5818 17.5349C36.8855 15.9817 32.5958 15.4901 27.7152 16.0601C27.1506 16.1255 26.5964 16.2092 26.0501 16.3033C26.5677 16.2065 27.1558 16.1098 27.6603 16.0444C28.5439 15.9268 29.153 15.8535 28.5831 15.8117V15.8091ZM24.7195 16.57C23.3915 16.8602 22.1211 17.2342 20.9081 17.6996C20.9526 17.6787 20.9892 17.6604 21.0075 17.6473C22.1263 17.2106 23.6529 16.753 24.7195 16.57ZM18.1006 18.9809C17.1647 19.4855 16.2681 20.0504 15.4133 20.6753C14.9558 21.01 14.5141 21.3604 14.088 21.7212C13.8083 21.9278 13.5312 22.1396 13.2619 22.3619C14.4565 21.0911 16.2812 19.9065 18.1006 18.9835V18.9809Z" fill="#D18730" fill-opacity="0.9"/>
<path d="M30.2718 36.0165H30.4339C30.6038 36.0375 30.298 36.0741 30.2326 36.1133C30.5489 36.095 30.8391 36.0192 30.8208 35.9799C30.6665 35.9982 30.4339 36.0165 30.2718 36.0165Z" fill="#D18730" fill-opacity="0.9"/>
<path d="M31.7514 24.1504C32.465 24.2681 32.7395 24.2681 33.3565 24.4224C32.75 24.255 32.0938 24.0772 31.7514 24.1504Z" fill="#D18730" fill-opacity="0.9"/>
<path d="M13.9024 45.83C14.2343 45.7908 14.7415 45.7411 15.0892 45.7176L14.7415 45.7385C14.3781 45.7411 15.0447 45.6627 15.1859 45.6156C14.5036 45.6758 13.8684 45.7934 13.9024 45.83Z" fill="#D18730" fill-opacity="0.9"/>
<path d="M29.2523 15.2913C30.7659 15.1371 32.3553 15.239 33.1447 15.1737C31.4116 15.0795 30.7659 15.1658 29.2523 15.2913Z" fill="#D18730" fill-opacity="0.9"/>
<path d="M37.011 10.0224C36.679 9.69036 36.6685 9.15955 36.9822 8.81178L44.516 0.514897C44.8532 0.14359 45.431 0.130516 45.7865 0.483519L46.5472 1.24444C46.9001 1.59744 46.887 2.17793 46.5158 2.51525L38.2213 10.0512C37.8736 10.365 37.3429 10.3519 37.011 10.0224Z" fill="#D18730" fill-opacity="0.9"/>
<path d="M40.6446 5.13793L40.7282 5.05164C40.4668 5.34189 40.1871 5.63736 39.9074 5.93023C40.5583 5.33666 41.3085 4.61758 41.6353 3.99786C41.7529 4.00571 42.3594 3.40429 42.3542 3.37553C42.477 3.21602 42.5842 3.07744 42.6835 2.94931C43.0417 2.50217 43.4364 2.05242 43.8521 1.60006C44.0586 1.38041 44.2703 1.15292 44.4899 0.917582C44.7252 0.656099 44.8637 0.517512 45.1042 0.507053C45.2245 0.496594 45.4127 0.527972 45.5564 0.666558C45.7577 0.87313 45.9851 1.10847 46.2126 1.34119C46.3459 1.47716 46.4034 1.5373 46.4426 1.63928C46.4844 1.73603 46.4897 1.84062 46.4792 1.93214C46.4635 2.02627 46.4269 2.10733 46.3825 2.16747C46.3381 2.23023 46.2884 2.26684 46.2074 2.33744C46.1263 2.40804 46.0453 2.47603 45.9642 2.54401C46.0566 2.46905 46.1481 2.39322 46.2387 2.31652C45.9172 2.64076 45.6192 2.94147 45.363 3.20034C45.4231 3.16373 45.4414 3.16634 45.5747 3.06959L45.4205 3.19772C45.3107 3.34938 44.9996 3.62917 44.8663 3.7756C44.8846 3.73115 44.767 3.83313 44.6624 3.92465L44.7121 3.8985C44.32 4.25673 43.8808 4.6568 43.5384 4.97058C43.4913 5.01503 43.4495 5.04118 43.4233 5.05687L43.1044 5.36804C43.1123 5.32358 42.8143 5.59814 42.9606 5.44387C42.7358 5.69228 42.4718 5.90408 42.2575 6.14464C41.4183 6.91341 40.5374 7.74231 39.6983 8.56598L39.727 8.55291C39.4342 8.84315 39.2016 9.12556 38.8199 9.4498C38.5716 9.7139 38.237 10.0774 38.1298 10.2055C37.9416 10.3232 37.7821 10.3571 37.6253 10.3702C37.4684 10.3755 37.3011 10.3598 37.1025 10.2447C37.1469 10.2865 37.0423 10.2395 36.9613 10.1767C36.875 10.1114 36.8306 10.0695 36.8907 10.1453C37.1129 10.3859 37.16 10.3598 37.4135 10.467L37.4083 10.4565C37.7246 10.535 38.0827 10.4617 38.3442 10.2499C38.5533 10.0721 38.7572 9.89693 38.9585 9.72436C39.3689 9.36351 39.7688 9.01312 40.1662 8.66535C40.6812 8.16591 41.2719 7.65602 41.8183 7.14874C42.3829 6.6127 43.0051 6.02175 43.5331 5.5197C43.6508 5.40203 43.7527 5.34189 43.8651 5.2556C44.3435 4.81108 44.9055 4.29334 45.4493 3.79129C45.4388 3.79913 45.431 3.80698 45.4231 3.81482C45.6976 3.57426 45.9329 3.36769 46.2021 3.13235C46.1943 3.12712 46.2387 3.0879 46.2544 3.06698C46.2727 3.06175 46.3799 2.965 46.5315 2.82118C46.6622 2.71136 46.9654 2.40804 46.9942 2.06288C47.0517 1.71772 46.9132 1.37256 46.7328 1.18168C46.5576 1.00387 46.4557 0.914968 46.4322 0.88359C46.4034 0.854826 46.372 0.828678 46.3459 0.80253C46.2204 0.669173 46.0871 0.522742 45.9433 0.371081C45.7943 0.201117 45.5669 0.0625305 45.3316 0.0206931C45.0937 -0.026374 44.8454 0.00761889 44.6337 0.114827C44.5291 0.167124 44.4324 0.23511 44.354 0.31617C44.2781 0.392 44.2311 0.446912 44.171 0.512283C44.0873 0.62995 44.0089 0.742388 43.9174 0.8679C43.8259 0.946346 43.8338 0.982953 43.7344 1.08755C43.4338 1.30719 43.3135 1.485 43.4599 1.36472C43.2665 1.59221 43.06 1.81186 42.8822 2.01058C42.8064 2.10472 42.728 2.19885 42.6469 2.2956C42.5816 2.37928 42.5319 2.41327 42.4849 2.44203C42.3097 2.6486 42.3516 2.578 42.1555 2.78196C42.0901 2.81595 41.7085 3.33631 41.6484 3.39122L41.6771 3.35461C41.4523 3.59518 41.2693 3.72069 41.0524 3.95602C40.4407 4.60189 39.8002 5.33404 39.2382 5.94069C39.2539 5.96422 39.3558 5.8021 39.3898 5.8204C39.0761 6.14464 38.6866 6.54994 38.3703 6.8768C38.3049 6.93694 38.2213 7.00754 38.1899 7.03107C38.0775 7.1409 38.1376 7.10952 38.0566 7.19058L38.0278 7.18535C37.9311 7.32394 37.8422 7.34747 37.7429 7.47298C37.7429 7.48605 37.7063 7.53051 37.6697 7.56973C37.6488 7.55404 37.5547 7.69786 37.5416 7.67694C37.5181 7.70309 37.5024 7.72401 37.4737 7.75015C37.4318 7.80768 37.0972 8.28619 37.0502 8.35418L37.0266 8.37248C36.9665 8.44047 36.9561 8.48231 36.9953 8.4457L36.9195 8.52676L36.9273 8.5163L36.8515 8.59736C36.8358 8.61043 36.8123 8.62089 36.8254 8.58952C36.7522 8.68626 36.7313 8.71764 36.6842 8.7804C36.7182 8.73333 36.76 8.69149 36.8018 8.64966C36.8358 8.61828 36.8724 8.5869 36.9116 8.55291C36.9796 8.49277 37.0554 8.43001 37.1338 8.36464C37.0894 8.4274 36.9901 8.5163 36.9352 8.57906C36.8698 8.62612 36.679 8.79609 36.6006 8.98436C36.5849 9.02619 36.6006 9.0628 36.5666 9.15171C36.5352 9.19354 36.5457 9.25891 36.5247 9.33736C36.5221 9.24323 36.5404 9.1517 36.5718 9.0628C36.5378 9.06803 36.4986 9.28768 36.496 9.36351C36.496 9.40012 36.4986 9.58838 36.5404 9.69821C36.5038 9.65375 36.5509 9.79496 36.5692 9.86294C36.6005 9.93877 36.6345 9.97799 36.6241 9.94662C36.6476 9.95969 36.5169 9.65114 36.5823 9.74266C36.5796 9.77404 36.6371 9.91524 36.6868 9.98322C36.6999 9.97799 36.6685 9.93093 36.7051 9.96754C36.7469 10.046 36.8228 10.1087 36.8463 10.1532C36.8332 10.1427 36.8097 10.114 36.7914 10.0957C36.8306 10.1401 36.7051 10.0381 36.6162 9.90216C36.5247 9.76881 36.4777 9.61192 36.4986 9.69036C36.4986 9.66944 36.5587 9.83941 36.6633 9.97015C36.713 10.0381 36.7705 10.0957 36.8123 10.1323C36.8306 10.148 36.8489 10.161 36.8593 10.1715C36.9561 10.08 36.9874 10.0486 37.0136 10.0224L36.8646 10.1715L36.862 10.1636V10.1584L36.8567 10.1532C36.8567 10.1532 36.8646 10.1532 36.8724 10.1558C36.875 10.1558 36.8803 10.1584 36.8803 10.1584L37.0136 10.0251L36.8829 10.1558V10.1532L36.8724 10.1375L36.8071 10.0904C36.7496 10.0094 36.7496 9.96231 36.7757 9.98584C36.8227 10.0512 36.7313 9.97799 36.6607 9.87602C36.5875 9.77665 36.5404 9.65376 36.5666 9.72174L36.5587 9.6616C36.5979 9.76096 36.6032 9.77665 36.6633 9.93354C36.6764 9.9257 36.7182 9.99891 36.7652 10.0486L36.7783 10.0695C36.8254 10.1218 36.8907 10.1924 36.8724 10.148C36.6215 9.85771 37.1286 10.2421 36.9064 9.96492C36.977 10.093 36.841 9.95446 36.7757 9.81326C36.7783 9.79496 36.76 9.72958 36.7443 9.62238C36.7234 9.53347 36.7234 9.57008 36.713 9.55439C36.7077 9.50209 36.713 9.40273 36.7286 9.4158C36.7103 9.34259 36.7443 9.30337 36.7548 9.21969C36.7626 9.14386 36.7443 9.22231 36.7496 9.1674C36.7783 9.05496 36.8567 8.91376 36.9195 8.84577C36.9535 8.82485 37.0397 8.76733 37.0084 8.83793C36.9038 8.96082 37.0188 8.76471 36.9169 8.9033C36.9822 8.85884 36.8384 9.03404 36.8593 9.07849C36.8907 9.03404 36.943 8.94252 36.9979 8.87192L36.9822 8.88238C37.0266 8.81962 37.1364 8.69411 37.207 8.6392C37.2018 8.66273 37.2332 8.6392 37.1966 8.68626L37.275 8.6052C37.2828 8.59213 37.2881 8.57906 37.2645 8.59998C37.2933 8.55552 37.3325 8.51892 37.3665 8.49277C37.3848 8.49277 37.7298 8.01425 37.722 8.03256C37.7769 7.97241 37.803 7.9698 37.8475 7.90443C37.8475 7.90443 37.7246 8.04824 37.6122 8.18945C37.4998 8.33065 37.3952 8.464 37.4292 8.42217C37.4867 8.38033 37.9991 7.70047 38.0514 7.67955C38.0906 7.6351 38.1376 7.58019 38.1193 7.58019C38.1925 7.50959 38.1193 7.61941 38.1742 7.57234C38.1742 7.57234 38.1664 7.57234 38.1821 7.55666L38.2396 7.51482C38.3311 7.38408 38.5062 7.23242 38.5977 7.09121C38.5768 7.13567 38.5559 7.19319 38.4958 7.27948L38.4775 7.28994C38.4696 7.30302 38.4147 7.371 38.4252 7.37885C38.4984 7.31086 38.5559 7.24549 38.6186 7.15659L38.6657 7.11998H38.6605C38.6892 7.09644 38.6892 7.10167 38.684 7.11475V7.12259C38.752 7.10167 38.9297 6.81404 39.0683 6.69114C39.0996 6.64669 39.0683 6.6833 39.1075 6.62839C39.2539 6.48719 39.3584 6.38782 39.4787 6.27016C39.51 6.21263 39.5074 6.20478 39.4447 6.24924L39.5493 6.14203C39.4891 6.27015 39.7662 5.96422 39.6956 6.10281C39.7322 6.07666 39.7924 6.0139 39.8446 5.94592C39.8446 5.93284 39.8394 5.91192 39.91 5.83348C40.0172 5.73673 39.9832 5.76811 40.0825 5.67659C40.1113 5.66351 40.0851 5.70012 40.0982 5.70535C40.2106 5.5563 40.2289 5.60599 40.3465 5.47263C40.4171 5.38896 40.5609 5.22683 40.5478 5.20592C40.6472 5.09609 40.6602 5.10917 40.6655 5.1327L40.6446 5.13793Z" fill="#D18730" fill-opacity="0.9"/>
<path d="M40.3596 12.9145C40.2916 12.4516 40.5975 12.015 41.0576 11.926L52.0498 9.75835C52.5413 9.6616 53.0144 9.9963 53.0876 10.4905L53.2445 11.5547C53.3177 12.0516 52.9622 12.5065 52.4629 12.5562L41.3138 13.6597C40.8484 13.7068 40.4276 13.3773 40.3596 12.9145Z" fill="#D18730" fill-opacity="0.9"/>
<path d="M41.0184 13.2701C41.2118 13.3642 41.3164 13.3459 41.4 13.3773C41.4706 13.4008 41.4837 13.4322 41.6196 13.4453L41.2615 13.5002C41.0576 13.5054 40.8223 13.3747 40.7282 13.223C40.6315 13.0713 40.6393 12.9563 40.6785 12.9955C40.6942 13.0269 40.8484 13.1969 41.0184 13.2675V13.2701Z" fill="#D18730" fill-opacity="0.9"/>
<path d="M40.4746 12.9432C40.4877 13.0007 40.4851 13.0138 40.506 13.0713C40.4642 13.0243 40.4276 12.9694 40.3936 12.9118L40.4746 12.9458V12.9432Z" fill="#D18730" fill-opacity="0.9"/>
<path d="M42.1607 13.3642L42.5032 13.3224C42.5842 13.3224 42.3908 13.3538 42.4012 13.3616L42.7907 13.3511C42.2627 13.3773 42.2784 13.44 42.1607 13.3642Z" fill="#D18730" fill-opacity="0.9"/>
<path d="M46.7276 13.2675C46.9916 13.2805 46.5341 13.3537 46.4322 13.393C46.2152 13.4113 46.0191 13.3877 46.189 13.3407C46.4766 13.3145 46.589 13.2831 46.7276 13.2675Z" fill="#D18730" fill-opacity="0.9"/>
<path d="M44.1736 13.1419C44.0507 13.2178 43.2926 13.2544 43.3737 13.3093C43.4076 13.3328 43.4442 13.3538 43.5357 13.3616L43.9122 13.291C44.8637 13.223 43.5253 13.4087 44.1684 13.4034C44.3069 13.3877 44.3749 13.3799 44.4324 13.3642C44.7408 13.3015 44.6493 13.2936 44.4637 13.2805C45.3682 13.1812 45.0415 13.3904 45.5329 13.3407C46.2073 13.2518 45.7812 13.1864 45.9407 13.1315C45.9433 13.2387 47.1824 13.1969 48.1784 13.1053C49.1038 12.9694 50.1599 12.9668 51.2682 12.7916C51.5035 12.7759 51.7832 12.7576 52.076 12.7366C52.2276 12.7236 52.3662 12.7183 52.5361 12.7C52.7164 12.6765 52.8916 12.6007 53.0354 12.4856C53.038 12.4909 53.0432 12.4935 53.0458 12.4987C53.0589 12.483 53.0615 12.4725 53.0589 12.4673C53.1739 12.3915 53.302 12.2477 53.3752 12.0542C53.4536 11.8711 53.451 11.6149 53.4144 11.4475C53.3621 11.1102 53.3203 10.8174 53.3726 10.752L53.3464 10.6422C53.3046 10.3755 53.2968 10.3284 53.3255 10.3728C53.3464 10.4068 53.3883 10.4827 53.3464 10.2709C53.2471 9.93616 52.9596 9.60146 52.604 9.47595C52.4315 9.41057 52.2485 9.39489 52.0995 9.4158C51.9348 9.44195 51.8825 9.47333 51.812 9.50994C51.7701 9.50994 51.8224 9.49425 51.7806 9.49687L51.3728 9.59623C51.3493 9.62499 51.2735 9.67206 51.3467 9.68252C51.2499 9.70082 51.1741 9.74527 51.0356 9.76358C50.6931 9.83156 50.9833 9.72174 50.8578 9.72436C49.9978 9.92308 49.0097 10.1244 48.1784 10.2343C48.1627 10.148 47.2164 10.3493 46.819 10.433C46.0087 10.514 45.1199 10.8566 44.503 10.9036C44.8506 10.7781 45.478 10.718 45.5355 10.6422L45.3656 10.6474C44.9918 10.7023 44.3932 10.7755 44.1866 10.8827C44.3984 10.8775 44.4193 10.9036 44.4925 10.9167C44.3304 10.9638 44.3069 10.9952 44.103 11.0422C43.8024 11.1076 43.4704 11.1625 43.4625 11.1181C43.6246 11.071 43.805 11.0501 43.9566 11.0161C44.0037 10.9559 43.4652 11.0605 43.2848 11.0788C43.622 11.1259 42.7933 11.3377 43.6586 11.241L43.1959 11.356C42.8587 11.5234 44.7225 11.1521 43.9357 11.4214C43.8599 11.4658 43.9749 11.4789 43.7057 11.5574C43.8651 11.5678 44.1657 11.4998 44.2834 11.4528C44.5056 11.4894 45.4519 11.2305 45.4989 11.3299C46.2649 11.0919 46.6648 11.1651 47.3811 11.0448C48.2908 10.888 47.6843 10.922 47.9353 10.8121C48.3953 10.7546 48.8371 10.6134 49.1064 10.5323C49.3521 10.4827 49.5116 10.4905 49.3495 10.5402C50.2775 10.4068 51.2421 10.2473 52.144 10.093C52.4341 10.0643 52.7034 10.2682 52.7243 10.5899C52.7557 10.8252 52.7896 11.0605 52.821 11.2959L52.8654 11.6306C52.8707 11.6986 52.8654 11.7639 52.8445 11.8267C52.7975 11.9234 52.7243 12.0019 52.6459 12.0594C52.604 12.0856 52.5596 12.1065 52.5152 12.1222C52.4681 12.1352 52.4315 12.1405 52.3217 12.1509C51.9557 12.1875 51.5898 12.2163 51.2055 12.1928L51.3336 12.2006C51.3519 12.2111 51.2578 12.2268 51.182 12.2398L51.5479 12.2738C51.3231 12.2869 51.0983 12.3026 50.8761 12.3261C50.6382 12.4359 49.6057 12.4516 49.2998 12.5667C48.0634 12.6608 48.5757 12.5719 47.3288 12.6582C46.6648 12.755 45.878 12.8752 45.0885 12.9432C44.801 12.9694 44.5369 12.9563 44.584 12.9328C44.2285 12.9694 43.7475 13.0191 43.3946 13.0557C41.8862 13.2884 43.6063 13.1916 44.1788 13.1419H44.1736Z" fill="#D18730" fill-opacity="0.9"/>
<path d="M49.1194 9.93616C49.1639 9.87601 48.7901 9.93093 48.662 9.93616L48.4999 9.98322C48.0921 10.0826 48.0895 10.1401 48.3561 10.1166C48.445 10.0564 48.8842 9.97276 49.1194 9.93616Z" fill="#D18730" fill-opacity="0.9"/>
<path d="M52.6642 9.39227C52.6328 9.3975 52.6014 9.40534 52.5727 9.41319C52.8106 9.47595 53.0301 9.61192 53.1948 9.80019C53.2157 9.76096 52.9491 9.48117 52.6668 9.38966L52.6642 9.39227Z" fill="#D18730" fill-opacity="0.9"/>
<path d="M41.8392 11.7169C42.3202 11.6306 42.5215 11.6384 43.0286 11.5234L42.9162 11.4554C42.4143 11.5129 41.881 11.5574 41.2928 11.675C40.9112 11.845 42.0169 11.5966 41.8418 11.7169H41.8392Z" fill="#D18730" fill-opacity="0.9"/>
<path d="M42.9136 11.6724C42.4823 11.8005 42.0039 11.8816 41.5412 11.9679C41.319 12.0176 41.0628 12.0411 40.9112 12.1195C40.7465 12.2058 40.6393 12.3575 40.608 12.5039C40.7439 12.4726 40.838 12.2555 41.1831 12.1849C41.5935 12.0829 42.0457 11.9548 42.3333 11.9313C42.7018 11.8345 42.9633 11.7639 43.3789 11.6567C43.7135 11.5469 43.1462 11.6358 42.911 11.6698L42.9136 11.6724Z" fill="#D18730" fill-opacity="0.9"/>
<path d="M40.4616 12.666C40.4537 12.7079 40.4537 12.755 40.4563 12.7968C40.4563 12.8177 40.4616 12.836 40.4642 12.8543L40.4694 12.8779V12.8883L40.472 12.8935V12.8962L40.357 12.9145L40.4877 12.8962V12.8622C40.4929 12.8229 40.5008 12.7654 40.5112 12.734C40.5138 12.6608 40.5321 12.4359 40.4563 12.6687L40.4616 12.666Z" fill="#D18730" fill-opacity="0.9"/>
<path d="M16.3622 13.325C16.6707 12.972 16.6445 12.4386 16.3073 12.1169L8.2167 4.36394C7.85595 4.01617 7.27824 4.04231 6.94886 4.42146L6.24306 5.23206C5.91368 5.61122 5.96858 6.18648 6.36069 6.49765L15.1571 13.44C15.5257 13.7303 16.0538 13.6806 16.3622 13.3276V13.325Z" fill="#D18730" fill-opacity="0.9"/>
<path d="M16.2629 12.5013C16.323 12.5928 16.1505 12.2241 16.2786 12.415C16.2498 12.2738 15.8342 11.9783 15.6564 11.7875C15.6669 11.7299 15.8734 11.8659 15.5466 11.4972C15.0918 11.0213 15.4159 11.5129 14.9872 11.1102L15.2695 11.3979C14.9219 11.1808 14.2683 10.4774 13.756 10.012C13.424 9.61192 13.1704 9.19877 12.6659 8.74902C12.6973 8.76994 12.8306 8.87192 12.8253 8.83008C12.7522 8.7281 12.5849 8.58429 12.4855 8.50323C12.1901 8.29927 12.5012 8.62874 12.3757 8.5686C12.1431 8.38556 11.913 8.22344 11.6359 7.91489L11.3405 7.48082C10.9955 7.34224 10.6949 6.86634 10.1616 6.41659C10.1119 6.27015 9.52113 5.84394 9.47408 5.6975C9.2362 5.47263 9.56296 5.51447 9.40873 5.29221C9.10549 4.9392 9.66229 5.49093 9.35906 5.13793C9.74333 5.46479 9.34338 5.38634 9.8479 5.83609L9.84267 5.79425C10.0727 5.95637 10.3603 6.3486 10.5485 6.42705C11.0608 6.93955 10.4674 6.49242 10.6844 6.78266C10.8752 6.88203 11.4843 7.43637 11.5654 7.39192L11.1576 7.00231C11.2255 7.06507 11.1863 7.00231 11.2203 7.02061C11.4425 7.3527 12.4228 7.81029 12.0359 7.79983C11.9705 7.76061 11.8346 7.6168 11.7719 7.59588C11.751 7.65863 12.0516 7.90443 12.2555 8.10839C12.5143 8.27051 12.8332 8.43001 13.1443 8.7804C13.2488 8.9033 13.1547 8.86407 13.2619 8.98697C13.9965 9.59884 13.8684 9.67729 14.6134 10.3493C15.0133 10.8357 15.6041 11.3299 16.0041 11.8162C15.9701 11.7142 16.3256 12.0777 16.404 12.1875C16.4563 12.2686 16.5792 12.5928 16.5478 12.8386C16.5557 12.6974 16.5269 12.7811 16.5112 12.687C16.54 12.9511 16.4354 13.0975 16.3753 13.1576C16.3413 13.189 16.3126 13.2047 16.289 13.2099C16.2786 13.2125 16.2681 13.2152 16.2577 13.2152H16.2367L16.3674 13.3302C16.1034 13.1001 16.2943 13.2675 16.2367 13.2152L16.242 13.2047L16.2655 13.1655L16.289 13.1158C16.3021 13.0844 16.3099 13.053 16.3178 13.0269C16.3282 12.9694 16.3309 12.9223 16.3256 12.8752C16.3178 12.7785 16.3178 12.6844 16.2655 12.5118L16.2629 12.5013Z" fill="#D18730" fill-opacity="0.9"/>
<path d="M8.15658 4.5156C8.22716 4.5156 8.086 4.33518 7.92915 4.26457C7.77753 4.19136 7.63114 4.1626 7.88732 4.15998C7.55533 4.04493 7.37496 4.13645 7.22596 4.23843C7.5867 4.13645 7.15015 4.28026 7.34882 4.25673C7.21812 4.31164 7.10571 4.39532 7.01944 4.50514C6.91749 4.62804 6.82077 4.74832 6.72405 4.86599C6.54368 5.10917 6.28488 5.32881 6.20907 5.5563C6.12281 5.79687 6.17248 6.07404 6.32932 6.26754C6.3999 6.36167 6.52277 6.44273 6.63779 6.53948L6.98023 6.81404C7.61284 7.41807 8.26637 7.83644 8.97217 8.28881C9.35645 8.63135 9.04275 8.48754 8.91728 8.46139L9.4218 8.86407L8.86761 8.5163C8.82578 8.53722 9.05321 8.72026 9.16039 8.84577L9.30939 8.95036C9.01923 8.9739 8.29774 8.14761 7.78015 7.81029C8.37093 8.26005 7.73048 7.6874 7.99973 7.85213L7.82197 7.70309C7.98666 7.8286 8.33956 8.0404 8.76827 8.36203C8.19317 7.89135 7.60239 7.44422 7.0299 7.02846C6.74496 6.81143 6.4548 6.64146 6.19078 6.40874C5.94505 6.14987 5.87186 5.75503 5.98688 5.42556C5.98426 5.47001 5.96335 5.57199 6.01825 5.46217C6.11235 5.23729 6.24044 5.09871 6.30057 4.97058C6.37115 4.84245 6.4182 4.73525 6.47048 4.65157L6.36854 4.81892C6.47571 4.73002 6.58812 4.59143 6.70052 4.445C6.79463 4.30641 6.96193 4.09722 7.15015 4.01616C7.36451 3.94818 7.55011 3.95079 7.754 3.99263C7.95006 4.02924 8.20102 4.15475 8.41798 4.36917L8.37355 4.38486L8.71076 4.73786C8.61927 4.65941 8.6428 4.70648 8.65325 4.73002C8.61927 4.71433 8.6062 4.69079 8.54869 4.62804C8.48334 4.65157 8.60359 4.88952 8.76827 5.10917C8.71076 5.04641 8.65064 4.98365 8.6062 4.94443C8.74736 5.11701 9.27279 5.68443 8.95126 5.46478C8.48595 5.01765 8.59574 4.9209 8.15396 4.51821L8.15658 4.5156Z" fill="#D18730" fill-opacity="0.9"/>
<path d="M10.3733 6.24139C10.0596 5.891 10.4988 6.30153 10.457 6.19694L10.7628 6.48457C10.7393 6.52641 10.4335 6.24139 10.3733 6.24139Z" fill="#D18730" fill-opacity="0.9"/>
<path d="M11.2438 10.0669C11.2517 10.1218 11.5 10.2944 11.6281 10.4094C11.913 10.5951 12.0045 10.6082 12.3757 10.9298C12.0071 10.786 12.6032 11.288 12.8332 11.56C12.6345 11.4214 12.2424 11.1991 11.981 10.9167C12.0385 10.9167 11.7823 10.6892 11.6542 10.5768C11.4137 10.4591 11.7117 10.8409 10.8595 10.1976C10.7184 10.0617 10.3184 9.7845 10.3838 9.75312C10.2923 9.65114 10.1433 9.63545 10.057 9.49948L10.0152 9.43149L10.5642 9.81326C10.5772 9.83418 10.606 9.88125 10.6557 9.91524C10.5851 9.8028 11.2804 10.2892 10.9903 9.95969L10.2714 9.3975C10.1145 9.238 10.3838 9.40012 10.6478 9.59623C10.9955 9.9257 10.9824 9.90478 11.2517 10.0669H11.2438Z" fill="#D18730" fill-opacity="0.9"/>
<path d="M9.3669 8.77256L9.33815 8.7281L9.9786 9.20923L9.3669 8.77256Z" fill="#D18730" fill-opacity="0.9"/>
<path d="M13.5965 11.8921C13.4606 11.811 13.3691 11.709 13.2331 11.628L13.2697 11.5521L13.5965 11.8921Z" fill="#D18730" fill-opacity="0.9"/>
<path d="M6.77111 7.09121C6.66393 7.05461 6.51231 6.94478 6.36331 6.83757C6.22999 6.74606 6.03916 6.59701 5.94767 6.50811C6.07053 6.665 6.04439 6.59439 6.0836 6.62316C5.99995 6.52902 5.93721 6.42182 5.89016 6.30938C5.99995 6.49503 6.20646 6.665 6.33455 6.75129C6.47571 6.86111 6.60903 6.96047 6.77372 7.0886L6.77111 7.09121Z" fill="#D18730" fill-opacity="0.9"/>
<path d="M14.8356 12.8778C15.0499 13.04 15.1885 13.1184 15.3349 13.2099C15.4394 13.2622 15.544 13.3171 15.7531 13.3302C15.8499 13.3433 15.6381 13.3799 15.7793 13.3877C15.9257 13.3825 15.9492 13.3276 15.9989 13.2858C15.9806 13.2858 15.9597 13.2858 15.9414 13.2858C15.9989 13.291 16.106 13.2518 16.1818 13.2099C16.2629 13.1655 16.3335 13.1289 16.2812 13.257C15.7923 13.7355 15.2277 13.6283 14.8513 13.1681L14.8225 13.0347L14.5245 12.8282C14.5114 12.8046 14.5324 12.7968 14.433 12.7262C14.2134 12.5981 14.5533 12.8726 14.5114 12.8935L13.9285 12.5013C13.8631 12.4438 13.9991 12.5248 13.986 12.5013C13.7507 12.2634 13.5102 12.232 13.3325 11.9966L13.7011 12.2294C13.2959 11.8973 13.011 11.6253 12.7417 11.3743C13.5521 12.0385 14.1429 12.2241 14.8382 12.8857L14.8356 12.8778Z" fill="#D18730" fill-opacity="0.9"/>
<path d="M13.2227 16.4419C13.2593 15.9764 12.9221 15.5633 12.4568 15.5031L1.33902 14.1016C0.842337 14.0388 0.392713 14.4049 0.356116 14.9043L0.272464 15.9764C0.233253 16.4759 0.620139 16.9073 1.12205 16.9204L12.3208 17.2472C12.7888 17.2603 13.1835 16.9047 13.2201 16.4393L13.2227 16.4419Z" fill="#D18730" fill-opacity="0.9"/>
<path d="M4.94385 16.7818C4.72165 16.787 4.34523 16.7583 4.40796 16.719L4.36352 16.6929C4.55174 16.7034 5.33597 16.7269 4.94124 16.7818H4.94385Z" fill="#D18730" fill-opacity="0.9"/>
<path d="M4.99091 16.9648C4.80008 16.9439 4.94647 16.9387 4.98045 16.9256L5.24186 16.9361C5.32028 16.957 5.1007 16.9622 4.99091 16.9648Z" fill="#D18730" fill-opacity="0.9"/>
<path d="M4.86804 17.344L4.94647 17.3571C4.86804 17.344 4.75564 17.3361 4.68244 17.3361C4.67722 17.3152 4.82099 17.2995 4.97261 17.3126C4.93862 17.3257 4.78962 17.3231 4.87066 17.3466L4.86804 17.344Z" fill="#D18730" fill-opacity="0.9"/>
<path d="M1.07238 16.8132C1.00703 16.8733 1.25275 16.9727 1.56906 17.0407L1.44619 17.1374C1.32072 17.1034 1.1691 17.1165 0.923374 17.0747C0.693334 17.0276 0.460679 16.889 0.322132 16.7112C0.186199 16.5909 0.583542 17.0537 0.262008 16.7243C0.241095 16.6746 0.285535 16.6877 0.241095 16.604C0.128689 16.4393 0.0999342 16.3922 0.0502663 16.2902C-0.00462966 16.1935 -0.0177001 15.966 0.0267395 15.6365L0.094706 15.4012C0.105162 15.2495 0.115619 15.0952 0.126075 14.9383C0.131303 14.771 0.180971 14.554 0.282921 14.3892C0.481592 14.0441 0.878935 13.8192 1.28412 13.8349C1.94287 13.895 2.5232 13.9656 3.11137 14.0624C3.32573 14.0362 3.92174 14.1304 4.2851 14.1434L4.29033 14.1748C4.50468 14.1487 4.84713 14.2585 5.10593 14.282L5.33335 14.3395C5.41439 14.3997 4.66937 14.2794 4.86804 14.3788C5.35688 14.4834 5.70978 14.4154 6.12542 14.52C6.53584 14.5853 6.4914 14.5435 6.74758 14.5592C6.81555 14.5383 6.66916 14.52 6.70052 14.4886C7.6233 14.5853 7.64944 14.7501 8.46243 14.839C8.49641 14.8181 9.14993 14.8364 8.5513 14.7239L8.26114 14.7187L8.07031 14.6612C8.29251 14.6873 8.70031 14.7422 8.65848 14.7004C8.93558 14.8494 10.1956 14.7841 9.55773 14.8808C9.1813 14.805 9.07151 14.7971 8.82056 14.8128C9.67537 14.9305 10.423 15.0717 11.1262 15.1606L11.3405 15.1345C11.3484 15.1868 11.6882 15.2626 12.0228 15.3175C12.1692 15.3253 12.3548 15.3515 12.313 15.3227C12.381 15.3018 11.087 15.1501 11.7039 15.1371C11.8921 15.1684 12.0882 15.1998 12.2921 15.2312C12.462 15.2574 12.7417 15.2992 12.9273 15.443C13.1207 15.5737 13.2488 15.7594 13.3142 15.9424C13.3456 16.034 13.3665 16.1255 13.3691 16.2118C13.3743 16.2536 13.3691 16.2954 13.3691 16.3347C13.3691 16.3556 13.3639 16.3739 13.3612 16.3922L13.356 16.421V16.434L13.3534 16.4419V16.4471C13.2959 16.4419 13.4789 16.4576 13.2253 16.4366C13.4789 16.4549 13.2959 16.4419 13.3534 16.4471V16.3713C13.3534 16.3451 13.3508 16.3216 13.3482 16.2954C13.3456 16.2458 13.3351 16.1987 13.3246 16.1516C13.3011 16.0601 13.2671 15.9738 13.2227 15.8954C13.1286 15.7411 12.9848 15.6051 12.7835 15.5371C12.6215 15.4561 12.4385 15.4508 12.2764 15.4352C12.1039 15.4169 11.9366 15.4012 11.7719 15.3829C11.4268 15.3436 11.0896 15.3044 10.7524 15.2652C10.0727 15.1841 9.39827 15.1083 8.75782 15.0691C8.71599 15.0272 8.37877 14.9723 8.48595 14.9488C8.37093 14.9096 8.04156 14.8965 7.96052 14.8337C6.96978 14.7605 5.81696 14.5853 4.92555 14.4677C5.16344 14.588 4.37921 14.4572 4.12564 14.4624C3.8956 14.3945 3.49303 14.3605 3.19502 14.3239C3.16104 14.3343 2.97544 14.3186 3.01726 14.3474C3.23685 14.3631 3.31527 14.3945 3.53747 14.4311C3.43813 14.486 3.05648 14.3683 2.72187 14.3212L2.90224 14.3082C2.34283 14.2428 1.70499 14.0258 1.18217 14.0571C1.33379 14.0702 1.46711 14.1225 1.60827 14.1591C1.45142 14.1513 1.28673 14.1094 1.12989 14.1304C0.970428 14.146 0.810968 14.2114 0.685492 14.3134C0.41624 14.5174 0.361344 14.8494 0.397941 15.0769C0.411011 14.8625 0.452837 14.6063 0.604454 14.4441C0.743002 14.282 0.905075 14.2297 0.912918 14.2716C0.912918 14.2951 0.81881 14.3526 0.727317 14.4415C0.635824 14.5304 0.560015 14.6612 0.523418 14.7527C0.41624 15.1789 0.418854 15.6862 0.411011 16.0653C0.450223 16.4262 0.714247 16.706 1.07761 16.8053L1.07238 16.8132Z" fill="#D18730" fill-opacity="0.9"/>
<path d="M0.528646 16.0052C0.58877 15.1998 0.431924 15.5659 0.515575 14.8233C0.541716 14.907 0.63321 14.6115 0.800512 14.4964C0.925988 14.3395 1.16648 14.2951 1.34163 14.3265C1.41744 14.3395 1.44619 14.3605 1.42267 14.3735C1.39914 14.3866 1.2998 14.384 1.21354 14.3866C0.957357 14.3343 0.659351 14.5827 0.638438 14.8704C0.617525 15.2312 0.60184 15.6757 0.533874 16.0052H0.528646Z" fill="#D18730" fill-opacity="0.9"/>
<path d="M0.502505 16.638C0.366572 16.4837 0.374414 16.4027 0.3718 16.3425C0.377028 16.2771 0.361344 16.2248 0.345659 16.0418C0.41624 16.1856 0.329975 16.2588 0.523418 16.5465C0.47375 16.502 0.431924 16.4497 0.392713 16.3922C0.41624 16.4759 0.452837 16.5595 0.502505 16.638Z" fill="#D18730" fill-opacity="0.9"/>
<path d="M1.43835 14.2611C1.69715 14.2872 2.29316 14.3892 2.30362 14.452C2.34021 14.4624 2.27225 14.4834 2.41864 14.4912C2.19382 14.4441 1.52462 14.3526 1.43835 14.2611Z" fill="#D18730" fill-opacity="0.9"/>
<path d="M0.384871 14.4964C0.458065 14.3526 0.565243 14.2114 0.787441 14.0937C0.643666 14.1774 0.507733 14.3239 0.384871 14.4964Z" fill="#D18730" fill-opacity="0.9"/>
<path d="M1.78864 14.1931C1.7442 14.1408 2.00822 14.2088 2.08403 14.2193L2.23565 14.2585C2.08926 14.2506 1.90366 14.235 1.78864 14.1957V14.1931Z" fill="#D18730" fill-opacity="0.9"/>
<path d="M3.99494 14.6063C4.36875 14.6716 3.59759 14.6141 4.04199 14.6769L3.78319 14.6507L3.69693 14.5696L3.99232 14.6063H3.99494Z" fill="#D18730" fill-opacity="0.9"/>
<path d="M4.56219 14.7396C4.67199 14.7396 4.78178 14.7448 4.96999 14.7841L4.86282 14.7971C4.78962 14.7971 4.7112 14.7579 4.56219 14.7396Z" fill="#D18730" fill-opacity="0.9"/>
<path d="M4.09166 14.5226C4.27464 14.5304 4.24327 14.5618 4.35568 14.5906C4.2851 14.601 3.90606 14.5069 4.09166 14.5226Z" fill="#D18730" fill-opacity="0.9"/>
<path d="M5.94767 14.3291C5.77252 14.3631 5.43269 14.2872 5.10331 14.2637C5.43269 14.2872 5.57646 14.2742 5.94767 14.3291Z" fill="#D18730" fill-opacity="0.9"/>
<path d="M7.65467 16.8132C7.8089 16.8367 7.99189 16.8263 8.09907 16.8132L8.01803 16.7923L7.65467 16.8132Z" fill="#D18730" fill-opacity="0.9"/>
<path d="M5.40916 16.719C5.23925 16.7792 5.52941 16.7583 5.84049 16.8158C6.25352 16.8419 6.68745 16.8001 7.10048 16.8158L7.35143 16.787C6.85998 16.7504 5.99733 16.7034 5.40916 16.7217V16.719Z" fill="#D18730" fill-opacity="0.9"/>
<path d="M5.08501 17.0381C5.39086 17.0747 5.78821 17.0381 6.01302 17.0459C5.62613 17.0302 5.15298 17.0093 4.88896 16.9988C4.85497 17.0119 5.00659 17.0276 5.08501 17.0381Z" fill="#D18730" fill-opacity="0.9"/>
<path d="M11.6359 16.8916C11.1157 16.8786 10.3916 16.8053 9.81653 16.8733C10.0805 16.8942 10.0858 16.9152 10.5014 16.9413C10.1877 17.0198 9.86358 16.9099 9.49238 16.9021C9.79561 16.9282 9.39566 16.9544 9.13686 16.9544C8.64541 16.9178 7.8638 16.9047 7.19459 16.889C6.90442 16.9125 5.95812 16.8341 6.09405 16.923C5.68625 16.9178 5.63136 16.8524 5.32812 16.8236C4.42103 16.8969 3.71261 16.5935 2.73756 16.6851C2.79768 16.6354 2.31669 16.6301 2.12847 16.6197C1.92196 16.6118 1.5769 16.6014 1.31026 16.6014C1.25275 16.6014 1.19263 16.604 1.12989 16.6066C1.10375 16.6066 1.07499 16.6092 1.04362 16.6118C0.996569 16.6171 0.97827 16.6249 1.00964 16.6615C1.08283 16.7164 1.31287 16.7034 1.5403 16.7007C1.77034 16.6981 2.01868 16.6955 2.23304 16.7321C2.97021 16.855 1.45926 16.7478 1.44619 16.8341C1.55337 16.821 1.61088 16.8995 1.94026 16.8812C1.24229 16.8995 2.22519 16.9831 1.86706 17.025C2.66436 17.0982 2.58855 17.0982 2.99112 17.2185C3.47212 17.2159 3.3388 17.1374 3.47735 17.0982C3.98709 17.0694 4.38705 17.1793 4.82883 17.1714C4.49161 17.2943 5.56339 17.2943 6.08621 17.3074C6.76065 17.3335 6.31625 17.1976 7.02729 17.2289C7.38019 17.3022 6.30318 17.2917 6.76849 17.3728L7.09787 17.3545C7.30961 17.31 7.47691 17.2472 7.72786 17.2185C7.87687 17.2211 8.10168 17.2263 8.10691 17.2472C7.81413 17.2603 7.90301 17.3126 8.20886 17.3492C8.35263 17.3335 8.38923 17.3283 8.4572 17.31C7.86118 17.1505 9.08981 17.3205 9.5159 17.2499C10.7524 17.1688 10.1564 17.4355 11.3719 17.4094C11.1889 17.3414 11.3876 17.3309 11.6856 17.3335C11.981 17.3231 12.3705 17.3806 12.5927 17.2943C12.9404 17.1819 13.0606 17.0904 13.2462 16.8864C13.3037 16.7896 13.3717 16.4916 13.3377 16.4445C13.2488 16.5412 13.1234 16.7923 12.8436 16.9308C12.7077 16.9988 12.5404 17.0302 12.381 17.0014C12.1483 16.9596 11.9183 16.9178 11.6934 16.8785C11.6647 16.8785 11.6412 16.8838 11.6438 16.8864L11.6359 16.8916Z" fill="#D18730" fill-opacity="0.9"/>
</svg>
