<svg width="41" height="40" viewBox="0 0 41 40" fill="none" xmlns="http://www.w3.org/2000/svg">
<g clip-path="url(#clip0_87_1464)">
<path fill-rule="evenodd" clip-rule="evenodd" d="M20.4001 12.4658C20.8501 12.4658 21.2149 12.8306 21.2149 13.2806V18.9843H26.9186C27.3686 18.9843 27.7334 19.3491 27.7334 19.7992C27.7334 20.2492 27.3686 20.614 26.9186 20.614H21.2149V26.3177C21.2149 26.7677 20.8501 27.1325 20.4001 27.1325C19.9501 27.1325 19.5853 26.7677 19.5853 26.3177V20.614H13.8816C13.4316 20.614 13.0668 20.2492 13.0668 19.7992C13.0668 19.3491 13.4316 18.9843 13.8816 18.9843H19.5853V13.2806C19.5853 12.8306 19.9501 12.4658 20.4001 12.4658Z" fill="#A59582"/>
<circle cx="20.2" cy="20" r="19.4" stroke="#A59582" stroke-opacity="0.33" stroke-width="1.2"/>
</g>
<defs>
<clipPath id="clip0_87_1464">
<rect width="40" height="40" fill="white" transform="translate(0.199951)"/>
</clipPath>
</defs>
</svg>
