<svg width="40" height="40" viewBox="0 0 40 40" fill="none" xmlns="http://www.w3.org/2000/svg">
<g clip-path="url(#clip0_87_1461)">
<path d="M27.2156 19.5675V18.4932C27.2156 18.016 26.8288 17.6292 26.3516 17.6292C25.8745 17.6292 25.4876 18.016 25.4876 18.4932V19.5675C25.4876 22.5181 23.1125 24.9193 20.1939 24.9193C17.2753 24.9193 14.9002 22.5181 14.9002 19.5675V18.4932C14.9002 18.016 14.5134 17.6292 14.0362 17.6292C13.5591 17.6292 13.1722 18.016 13.1722 18.4932V19.5675C13.1722 23.1848 15.8649 26.1847 19.333 26.6168V28.4749H15.9873C15.5049 28.4749 15.1139 28.8659 15.1139 29.3483C15.1139 29.8307 15.5049 30.2218 15.9873 30.2218H24.4127C24.8951 30.2218 25.2862 29.8307 25.2862 29.3483C25.2862 28.8659 24.8951 28.4749 24.4127 28.4749H21.067V26.6168C24.5351 26.1847 27.2278 23.1909 27.2278 19.5675H27.2156Z" fill="#A59582"/>
<path d="M20.1939 22.9317C22.2271 22.9317 23.8818 21.2588 23.8818 19.2033V13.5057C23.8818 11.4502 22.2271 9.77734 20.1939 9.77734C18.1607 9.77734 16.506 11.4502 16.506 13.5057V19.2033C16.506 21.2588 18.1607 22.9317 20.1939 22.9317ZM18.234 13.4996C18.234 12.407 19.1132 11.5181 20.1939 11.5181C21.2746 11.5181 22.1539 12.407 22.1539 13.4996V19.1971C22.1539 20.2897 21.2746 21.1786 20.1939 21.1786C19.1132 21.1786 18.234 20.2897 18.234 19.1971V13.4996Z" fill="#A59582"/>
<circle cx="20" cy="20" r="19.4" stroke="#A59582" stroke-opacity="0.33" stroke-width="1.2"/>
</g>
<defs>
<clipPath id="clip0_87_1461">
<rect width="40" height="40" fill="white"/>
</clipPath>
</defs>
</svg>
